<!--?xml version="1.0" encoding="UTF-8" standalone="no"?-->
<svg xmlns:dc="http://purl.org/dc/elements/1.1/" xmlns:cc="http://creativecommons.org/ns#" xmlns:rdf="http://www.w3.org/1999/02/22-rdf-syntax-ns#" xmlns:svg="http://www.w3.org/2000/svg" xmlns="http://www.w3.org/2000/svg" xmlns:sodipodi="http://sodipodi.sourceforge.net/DTD/sodipodi-0.dtd" xmlns:inkscape="http://www.inkscape.org/namespaces/inkscape" width="210mm" height="297mm" viewBox="0 0 210 297" version="1.1" id="svg432" sodipodi:docname="1.svg" inkscape:version="1.0.2 (e86c8708, 2021-01-15)" style="">
  <defs id="defs426">
    <inkscape:path-effect effect="skeletal" id="path-effect440" is_visible="true" lpeversion="1" pattern="M 0,5 C 0,2.24 2.24,0 5,0 7.76,0 10,2.24 10,5 10,7.76 7.76,10 5,10 2.24,10 0,7.76 0,5 Z" copytype="single_stretched" prop_scale="1" scale_y_rel="false" spacing="0" normal_offset="0" tang_offset="0" prop_units="false" vertical_pattern="false" hide_knot="false" fuse_tolerance="0"></inkscape:path-effect>
    <inkscape:path-effect effect="bspline" id="path-effect438" is_visible="true" lpeversion="1" weight="33.333333" steps="2" helper_size="0" apply_no_weight="true" apply_with_weight="true" only_selected="false"></inkscape:path-effect>
  </defs>
  <sodipodi:namedview id="base" pagecolor="#ffffff" bordercolor="#666666" borderopacity="1.0" inkscape:pageopacity="0.0" inkscape:pageshadow="2" inkscape:zoom="0.7" inkscape:cx="400" inkscape:cy="331.42857" inkscape:document-units="mm" inkscape:current-layer="layer1" inkscape:document-rotation="0" showgrid="false" inkscape:window-width="1252" inkscape:window-height="704" inkscape:window-x="19" inkscape:window-y="23" inkscape:window-maximized="0"></sodipodi:namedview>
  <metadata id="metadata429">
    <rdf:rdf>
      <cc:work rdf:about="">
        <dc:format>image/svg+xml</dc:format>
        <dc:type rdf:resource="http://purl.org/dc/dcmitype/StillImage"></dc:type>
        <dc:title></dc:title>
      </cc:work>
    </rdf:rdf>
  </metadata>
  <g inkscape:label="Layer 1" inkscape:groupmode="layer" id="layer1">
    <path style="fill:none;stroke:#000000;stroke-width:0.264583px;stroke-linecap:butt;stroke-linejoin:miter;stroke-opacity:1" d="m 10.205357,28.348215 c 2.135708,-0.135742 4.292526,0.193915 6.425595,0 6.856626,-0.62333 13.67718,-3.189009 20.410714,-4.535715 7.834532,-1.566906 6.618663,-1.168 12.851191,-2.267858 0.461772,-0.08149 3.590605,-0.596026 0.755952,-0.377976 -4.89044,0.376188 -10.207049,0.56774 -14.74107,2.645834 -4.033578,1.848722 -18.539355,13.966597 -12.851192,19.65476 4.585931,4.585933 13.827621,4.966192 19.654762,3.023812 2.730862,-0.910288 5.332907,-2.176095 7.9375,-3.401788 4.557267,-2.144596 3.72668,-1.458822 5.669642,-3.401784 0.503968,-0.503968 2.219121,-1.423504 1.511906,-1.511906 -5.438706,-0.679837 -14.438492,8.718695 -6.047618,10.583333 4.304678,0.956596 12.151587,-1.018916 13.229166,-6.047618 0.880417,-4.108617 -4.080859,-4.326274 -6.803572,-4.535715 -4.315402,-0.331952 -0.808789,-0.351558 -2.267858,0.377978 -0.112691,0.05634 -0.494956,-0.04679 -0.377976,0 3.579101,1.431639 6.785626,1.298631 10.583333,0.377976 2.439708,-0.591444 4.791599,-1.499661 7.181549,-2.267858 1.137925,-0.365762 2.278483,-0.725455 3.401785,-1.13393 0.264766,-0.09628 0.556741,-0.577186 0.755951,-0.377975 0.199213,0.199212 -0.303847,0.484153 -0.377975,0.755954 -0.305634,1.120658 -0.6949,2.241801 -0.755952,3.401785 -0.08125,1.543716 0.758306,6.275345 1.133927,6.425594 3.68876,1.475504 11.656015,-9.55498 13.607143,-10.205358 0.169037,-0.05634 0.214204,0.30779 0.377978,0.377979 0.732414,0.313891 1.47647,0.662847 2.267855,0.755951 1.376421,0.161931 2.780302,0.153049 4.157739,0 0.206907,-0.02299 4.394578,-1.393486 4.913688,-1.13393 0.50397,0.251987 -1.08177,0.391996 -1.5119,0.755955 -1.24366,1.052327 -6.047621,5.238895 -6.047621,7.559524 0,1.129514 1.686808,2.57733 2.645833,2.645833 3.954098,0.282435 14.841428,-5.288698 17.764878,-6.425597 1.59716,-0.621114 3.27802,-1.000757 4.91369,-1.511903 0.53781,-0.168066 2.07101,-0.686064 1.51191,-0.755954 -2.43197,-0.303996 -3.56753,-0.144952 -5.66964,0.755954 -2.58413,1.107482 -8.75875,7.547279 -2.64584,8.693452 1.23834,0.232187 2.64113,0.539355 3.77976,0 6.47348,-3.066381 8.41255,-16.28684 9.44941,-22.300596 0.26043,-1.510473 0.40093,-3.044636 0.75595,-4.535714 0.27685,-1.162762 0.79047,-2.256929 1.13393,-3.401786 0.0362,-0.120678 0.0625,-0.487368 0,-0.377976 -2.01849,3.532363 -7.49127,21.283673 -4.91369,25.702381 0.53868,0.923446 1.35737,1.707557 2.26786,2.267857 5.41915,3.334867 12.81004,-2.926342 16.63095,-5.291666" id="path559" class="AmJctTJc_0"></path>
    <path style="fill:none;stroke:#000000;stroke-width:0.264583px;stroke-linecap:butt;stroke-linejoin:miter;stroke-opacity:1" d="m 162.15178,17.386905 c -0.74088,6.637948 -1.06711,13.360887 -1.5119,20.032737 -0.19332,2.89978 -0.75595,5.793348 -0.75595,8.693452" id="path613" class="AmJctTJc_1"></path>
    <path style="fill:none;stroke:#000000;stroke-width:0.264583px;stroke-linecap:butt;stroke-linejoin:miter;stroke-opacity:1" d="m 188.23214,18.898809 c -2.87411,-7.549213 -17.74825,0.140769 -13.22917,4.157738 2.7111,2.409862 7.24686,1.030566 9.82739,-0.755952 0.73248,-0.507108 1.25991,-1.259921 1.88988,-1.889881 0.50396,-0.503968 1.6003,-2.21912 1.5119,-1.511905 -0.37146,2.971671 -2.54124,5.446981 -3.40178,8.315476 -1.34809,4.493609 -1.96524,9.397962 -3.02381,13.98512 -0.27527,1.192811 -0.39468,4.930389 -1.13393,5.669643" id="path615" class="AmJctTJc_2"></path>
    <path style="fill:none;stroke:#000000;stroke-width:0.264583px;stroke-linecap:butt;stroke-linejoin:miter;stroke-opacity:1" d="m 12.473214,77.485117 c 4.028423,-1.611368 4.791679,-1.536718 8.315476,-4.91369 1.677308,-1.607418 3.011294,-3.538583 4.535715,-5.291667 0.995518,-1.144844 2.063094,-2.22758 3.02381,-3.401785 0.1784,-0.218043 0.503967,-1.007935 0.377975,-0.755952 -1.04559,2.09118 -1.295291,2.259076 -1.511905,5.291667 -0.431594,6.042321 0.139467,12.554053 1.13393,18.520833 0.338939,2.033635 0.749884,3.135649 1.511903,4.913691 0.110979,0.258948 0.110707,0.845042 0.377976,0.755952 2.881093,-0.960364 9.747168,-14.050897 10.961311,-16.630952 1.036095,-2.201706 1.782848,-4.528434 2.645834,-6.803572 0.523007,-1.378839 0.982517,-2.781335 1.511903,-4.157737 0.101134,-0.262951 0.645247,-0.845042 0.377976,-0.755954 -2.932364,0.977455 -5.000178,11.139903 -5.669643,13.985121 -0.17553,0.746006 -0.269594,1.509178 -0.377976,2.267854 -0.01781,0.124728 -0.11698,0.331185 0,0.377979 3.930179,1.572069 10.263106,-2.477058 13.985119,-3.779763 1.128162,-0.394857 2.25693,-0.790472 3.401787,-1.133928 0.120677,-0.0362 0.500206,-0.03056 0.377976,0 -2.583677,0.645919 -2.312974,0.06957 -5.291667,1.889879 -1.713193,1.046951 -10.581237,7.750085 -6.803572,10.583333 0.613103,0.45983 1.529437,0.583094 2.267857,0.377979 5.77663,-1.604621 6.848129,-5.901039 9.449406,-10.583333 0.441225,-0.794211 0.983824,-1.528549 1.511903,-2.267858 0.103566,-0.144992 0.503968,-0.503968 0.377976,-0.377976 -2.551813,2.551814 -4.231378,5.961203 -2.645833,9.449403 0.339585,0.747086 1.171884,2.834762 2.645833,2.267858 2.333003,-0.897308 5.472353,-4.23032 7.181548,-5.669643 2.714289,-2.285716 5.283084,-3.939299 8.693452,-4.91369 0.121145,-0.03461 0.503968,0 0.377976,0 -0.503968,0 -1.017723,-0.09884 -1.511903,0 -3.511077,0.702214 -9.587273,4.660934 -7.181549,9.071427 0.38631,0.708237 1.145196,1.201621 1.889882,1.511906 7.124607,2.968585 10.184648,-7.093527 14.74107,-9.827382 1.024932,-0.614957 2.26093,-0.777409 3.401787,-1.133927 0.875483,-0.27359 1.755984,-0.53349 2.645834,-0.755952 0.122229,-0.03056 0.50152,-0.02471 0.377975,0 -1.125468,0.225092 -4.987874,0.732886 -5.669642,1.133928 -2.55614,1.503611 -5.33001,5.253323 -2.645833,7.9375 4.135434,4.135434 11.950226,-0.753859 15.497024,-3.02381 1.358992,-0.869756 2.511046,-2.026962 3.779765,-3.023809 0.49535,-0.389204 2.14186,-1.13393 1.5119,-1.13393 -2.921295,0 -8.994766,9.399186 -4.157738,10.205358 0.994222,0.165703 2.084409,0.365323 3.023808,0 1.35197,-0.525764 7.12435,-5.336112 7.9375,-6.047619 0.1827,-0.159863 2.26786,-2.27631 2.26786,-2.267857 0,2.282886 -0.46822,2.899529 -0.75595,4.913691 -0.0356,0.249452 -0.0414,1.004506 0,0.755951 0.16699,-1.001958 -0.0424,-2.099077 0.37797,-3.023809 0.82284,-1.810239 4.87001,-8.626594 8.31548,-7.9375 1.15508,0.231019 -3.20701,9.747213 0,10.205358 3.76622,0.53803 9.30773,-5.429158 11.71726,-7.181548 0.96127,-0.699104 1.9446,-1.391786 3.02381,-1.889882 0.7235,-0.333923 3.0647,-0.755952 2.26786,-0.755952 -4.39798,0 -13.39447,6.09658 -7.18155,8.315476 4.54143,1.621941 6.65711,-3.345775 8.31548,-6.425594 0.26713,-0.496104 0.75595,-2.07536 0.75595,-1.511906 0,1.873007 -1.65756,3.433125 -1.88988,5.291667 -0.24124,1.929868 0.72782,6.181814 3.77976,5.291666 9.46838,-2.761609 12.63927,-12.226218 15.875,-20.410712 0.83508,-2.112272 1.64387,-4.241636 2.26786,-6.425597 0.17306,-0.605721 0.40997,-2.368182 0,-1.889881 -0.81995,0.956603 -1.7465,1.876822 -2.26786,3.023811 -1.98695,4.37129 -5.00958,18.103387 -1.51191,22.300594 1.59472,1.913663 11.33929,-5.213196 11.33929,-7.559524 0,-0.281725 -0.62239,0.129924 -0.75595,0.377976 -0.77653,1.442122 -1.62062,2.920103 -1.88988,4.535715 -0.6556,3.933566 6.38165,3.808907 8.31547,3.401785 3.87697,-0.816203 3.54157,-1.705171 5.29167,-4.913691 0.13491,-0.247324 0.57719,-0.955162 0.37798,-0.755951 -1.74097,1.740963 -3.80036,7.865514 1.13392,6.047618 6.70365,-2.469764 4.34695,-10.453418 0.37798,-10.205355 -5.67413,0.354632 -3.77322,5.668415 2.26786,4.535712 2.62399,-0.491998 5.06334,-1.699003 7.55952,-2.645833 2.09686,-0.795361 4.15774,-2.540452 4.15774,-0.755952 0,1.906606 -0.41489,3.793792 -0.75595,5.669643 -0.16408,0.902441 -0.53349,1.755984 -0.75596,2.645833 -0.0306,0.12223 -0.0536,0.491977 0,0.377976 1.05673,-2.245537 1.61484,-4.760558 3.02381,-6.80357 1.16443,-1.688412 2.91675,-2.898545 4.53572,-4.157739 6.70463,-5.214715 -1.81893,9.656815 1.88988,11.717263 0.77096,0.42831 1.857,0.394417 2.64583,0 3.70099,-1.850493 4.53571,-4.976717 4.53571,-8.693454" id="path627" class="AmJctTJc_3"></path>
    <path style="fill:none;stroke:#000000;stroke-width:0.264583px;stroke-linecap:butt;stroke-linejoin:miter;stroke-opacity:1" d="m 136.4494,69.169642 c 12.63266,-0.177573 25.18364,-3.02381 37.79762,-3.02381" id="path629" class="AmJctTJc_4"></path>
    <path style="fill:none;stroke:#000000;stroke-width:0.264583px;stroke-linecap:butt;stroke-linejoin:miter;stroke-opacity:1" d="m 114.14881,107.34524 c -1.00794,-0.37798 -2.10074,-0.58009 -3.02381,-1.13393 -2.38699,-1.4322 -8.53714,-7.769709 -8.69345,-10.583335 -0.073,-1.313371 0.54566,-2.603236 1.13392,-3.779761 0.81365,-1.627299 2.01779,-2.703452 3.77977,-3.023809 0.56275,-0.10232 3.92859,-0.419733 3.40178,1.511903 -1.04447,3.829754 -4.82363,6.502014 -7.18155,9.449406 -2.93615,3.670196 -3.188,4.124526 -4.913686,8.315476 -0.720212,1.74909 -1.115481,2.95006 -0.377976,3.02381 8.703682,0.87037 10.958722,-8.94457 18.142862,-11.339286 0.93127,-0.310425 2.4512,0 3.40178,0" id="path633" class="AmJctTJc_5"></path>
    <path style="fill:none;stroke:#000000;stroke-width:0.264583px;stroke-linecap:butt;stroke-linejoin:miter;stroke-opacity:1" d="m 39.6875,218.47024 c -1.421194,-1.4212 -7.641258,-2.49655 -9.449405,-3.77976 0,1.99956 -5.025279,7.12396 -4.157738,9.4494 -2.90044,0 0.812618,0.17818 -1.133929,-0.37798 -4.351036,-1.24315 -8.835634,-2.21964 -13.229166,-3.40178 0.983669,-5.90202 -0.582972,2.12689 1.889881,-5.29167 0.570453,-1.71136 0.63835,-3.55714 1.133928,-5.29166 1.034165,-3.61958 2.593489,-7.02452 3.779762,-10.58334 2.466122,-7.39836 -1.3491,1.71256 2.267857,-6.42559 0.977258,-2.19883 1.796891,-4.38073 3.02381,-6.4256 0.289895,-0.48316 0.577773,-0.97736 0.755952,-1.5119 0.03984,-0.11953 -0.11269,-0.43428 0,-0.37798 1.155771,0.57789 3.374766,2.39057 4.535715,3.02381 1.70926,0.93232 6.407148,3.02381 8.315476,3.02381 1.033904,3.62755 -1.511905,7.06549 -1.511905,10.58333 1.007937,0.50397 1.997911,1.04559 3.02381,1.51191 1.994673,0.90667 3.665246,2.39959 5.669642,3.40178 0.149554,0.0748 2.473855,0.75596 1.133929,0.75596" id="path673" class="AmJctTJc_6"></path>
    <path style="fill:none;stroke:#000000;stroke-width:0.264583px;stroke-linecap:butt;stroke-linejoin:miter;stroke-opacity:1" d="m 56.696427,182.18452 c -2.005727,2.00573 -2.642061,7.80459 -4.157737,10.58334 -1.498383,2.74703 -2.8785,5.66393 -4.535715,8.31547 -0.667755,1.06841 -1.704403,1.8969 -2.267857,3.02381 -0.232318,0.46464 -0.195575,1.0255 -0.377976,1.51191 -0.395684,1.05515 -1.155544,1.95473 -1.511903,3.0238 -0.726102,2.1783 -0.851771,4.60312 -1.511906,6.80357 -1.177843,3.92615 -3.840319,8.4366 -5.669643,12.09524 -1.001895,2.00379 -1.185412,4.50125 -2.267857,6.4256 -0.753986,1.34042 -1.76389,2.51984 -2.645833,3.77976 -0.269876,1.23748 -4.657203,12.48673 -4.535714,12.85119 0.02535,0.0761 9.953807,4.15774 11.339285,4.15774 1.082898,0 5.649855,-8.25611 6.047619,-9.4494 0.119527,-0.35858 -0.07413,-0.76329 0,-1.13393 0.142389,-0.71194 0.80773,-1.61546 1.133929,-2.26786 0.222823,-0.44564 2.645833,-6.28617 2.645833,-4.53571" id="path675" class="AmJctTJc_7"></path>
    <path style="fill:none;stroke:#000000;stroke-width:0.264583px;stroke-linecap:butt;stroke-linejoin:miter;stroke-opacity:1" d="m 56.696427,182.18452 c 2.397596,0.0479 4.055935,1.27202 6.047621,2.26786 1.247465,0.62373 2.902632,1.47151 4.157736,1.88988 0.38649,0.12883 1.986542,0.0967 2.267858,0.37798 0.08909,0.0891 -0.08909,0.28888 0,0.37797 0.178181,0.17818 0.530571,-0.11269 0.755951,0 1.729849,0.86493 -1.603909,-0.15666 1.13393,0.75595 0.239054,0.0797 0.755952,-0.25198 0.755952,0 0,0.3624 -1.323494,2.45858 -1.511903,3.02381 -0.119528,0.35858 0.169034,0.79586 0,1.13393 -0.645025,1.29005 -0.652788,3.09229 -1.13393,4.53572 -0.4424,1.3272 -2.449963,3.47907 -3.023809,4.91369 -0.373433,0.93358 -0.885495,2.40805 -1.133928,3.40178 -0.09167,0.36669 0.169034,0.79586 0,1.13393 -0.261197,0.52239 -0.755954,0.87944 -0.755954,1.5119" id="path679" class="AmJctTJc_8"></path>
    <path style="fill:none;stroke:#000000;stroke-width:0.264583px;stroke-linecap:butt;stroke-linejoin:miter;stroke-opacity:1" d="m 48.380951,237.36905 c 3.789593,0.16768 6.911422,1.99009 10.205357,3.40178 1.334294,0.57184 2.837313,0.85169 4.15774,1.51191 0.406312,0.20315 0.70858,0.59644 1.133927,0.75595 0.601533,0.22557 1.286124,0.15842 1.889882,0.37797 6.929561,2.51984 -1.259922,0 3.77976,1.88989 3.131757,1.1744 6.028743,2.77469 9.07143,4.15773 2.233793,1.01536 4.513982,1.50466 6.80357,2.26786 1.697088,0.56569 3.335949,1.47899 4.913691,2.26786 2.408161,1.20408 5.094735,1.72153 7.559524,2.64583 0.425347,0.1595 0.716389,0.57701 1.133928,0.75595 4.1101,1.76147 8.69397,2.49485 12.85119,4.15774 1.30337,0.52135 2.4764,1.36853 3.77976,1.88988 1.20034,0.48014 2.10744,0.59553 3.02381,1.51191" id="path681" class="AmJctTJc_9"></path>
    <path style="fill:none;stroke:#000000;stroke-width:0.264583px;stroke-linecap:butt;stroke-linejoin:miter;stroke-opacity:1" d="m 64.255951,207.50892 c 0.755951,0.12599 1.533797,0.15776 2.267857,0.37798 1.548178,0.46446 3.114281,1.55714 4.535715,2.26786 0.933109,0.46655 2.090701,0.66737 3.023809,1.13393 1.552589,0.77629 2.864176,1.66002 4.535715,2.26786 2.747021,0.99891 5.5645,2.10681 8.315476,3.0238 0.239054,0.0797 0.521991,-0.0936 0.755952,0 0.42178,0.16872 0.727617,0.5528 1.13393,0.75596 2.366081,1.18304 1.236337,0.41211 3.401785,1.13393 3.904231,1.30141 7.83763,3.08085 11.71726,4.53571 1.56838,0.58814 3.01712,1.66042 4.53572,2.26786 1.37433,0.54973 3.1191,0.8823 4.53571,1.5119 2.03317,0.90363 4.00395,2.09487 6.04762,3.02381 4.33595,1.97089 -0.52673,-0.30157 3.77976,1.13393 1.79278,0.59759 3.5192,1.60318 5.29167,2.26786 2.8422,1.06582 5.74509,1.73861 8.31547,3.02381" id="path683" class="AmJctTJc_10"></path>
    <path style="fill:none;stroke:#000000;stroke-width:0.264583px;stroke-linecap:butt;stroke-linejoin:miter;stroke-opacity:1" d="m 118.68452,264.96131 c 0.75029,-0.30011 2.18244,-0.58512 2.64584,-1.51191 0.95798,-1.91597 1.38107,-4.39037 1.88988,-6.42559 0.14143,-0.56574 0.93069,-1.48341 1.13393,-1.88989 1.35551,-2.71102 3.29913,-4.97623 4.91369,-7.55952 0.71574,-1.1452 0.96048,-2.16108 1.5119,-3.40178 0.7628,-1.7163 1.81583,-3.25368 2.64583,-4.9137 1.44223,-2.88445 -0.42088,-4.40168 3.02381,-3.0238" id="path685" class="AmJctTJc_11"></path>
    <path style="fill:none;stroke:#000000;stroke-width:0.264583px;stroke-linecap:butt;stroke-linejoin:miter;stroke-opacity:1" d="m 123.22024,255.13392 c 1.33827,0.41919 2.58813,0.35875 3.77976,0.75596 0.56893,0.18964 1.20765,1.13393 1.88988,1.13393 0.12599,0 -0.0564,-0.26529 0,-0.37798 0.1896,-0.3792 0.44741,-0.82539 0.75595,-1.13393 0.454,-0.454 1.69116,-1.29372 1.88988,-1.88988 0.0797,-0.23905 -0.11269,-0.53057 0,-0.75595 0.50397,-1.00794 0.37798,1.13393 0.37798,-0.37798" id="path715" class="AmJctTJc_12"></path>
    <path style="fill:none;stroke:#000000;stroke-width:0.264583px;stroke-linecap:butt;stroke-linejoin:miter;stroke-opacity:1" d="m 131.53571,243.79464 c -0.4254,1.31308 4.53572,2.21707 4.53572,3.02381 0,0.0802 -0.97323,0.43456 -1.13393,0.75595 -0.11356,0.22711 -1.13353,2.64544 -1.13393,2.64584 -0.0891,0.0891 -0.28889,-0.0891 -0.37798,0 -0.18898,0.18898 0.18899,0.94493 0,1.13392 -0.25198,0.25199 -1.07469,0.59659 -0.75595,0.75596 0.77057,0.38528 2.24915,-0.009 3.02381,0.37797 1.02028,0.51014 2.22016,1.27558 3.40179,1.51191 0.37063,0.0741 0.76723,-0.0917 1.13392,0 1.20899,0.30224 2.51717,1.46901 3.77977,1.88988 1.22363,0.40788 2.28534,0.47684 3.40178,0.75595 0.81956,0.20489 1.07033,0.92904 1.88988,1.13393 0.69635,0.17409 1.21331,0.15245 1.88988,0.37798 0.23067,0.0769 0.90327,0.67906 1.13393,0.75595 1.20381,0.40126 4.83222,1.05245 5.66965,1.88988" id="path719" class="AmJctTJc_13"></path>
    <path style="fill:none;stroke:#000000;stroke-width:0.264583px;stroke-linecap:butt;stroke-linejoin:miter;stroke-opacity:1" d="m 66.901784,243.79464 c 0.503968,-0.75595 1.007938,-1.5119 1.511906,-2.26786 0.125992,-0.50397 0.145658,-1.04727 0.377976,-1.5119 0.281725,-0.56346 0.852202,-0.94845 1.133927,-1.51191 0.23232,-0.46463 0.145659,-1.04727 0.377979,-1.5119 0.281725,-0.56345 0.852201,-0.94845 1.133927,-1.51191 0.356359,-0.71271 0.399592,-1.55514 0.755952,-2.26785 0.785796,-1.57159 1.319056,-2.06729 1.889881,-3.77976" id="path721" class="AmJctTJc_14"></path>
    <path style="fill:none;stroke:#000000;stroke-width:0.264583px;stroke-linecap:butt;stroke-linejoin:miter;stroke-opacity:1" d="m 75.973214,249.46428 c 2.728119,-3.20816 4.110204,-7.11025 6.425594,-10.58333" id="path723" class="AmJctTJc_15"></path>
    <path style="fill:none;stroke:#000000;stroke-width:0.264583px;stroke-linecap:butt;stroke-linejoin:miter;stroke-opacity:1" d="m 88.446426,252.86607 c 2.432246,-5.25072 5.537753,-10.21758 7.9375,-15.49702 0.214964,-0.47292 0.145659,-1.04727 0.377979,-1.51191 1.209521,-2.41905 1.133927,-0.72068 1.133927,-1.88988" id="path725" class="AmJctTJc_16"></path>
    <path style="fill:none;stroke:#000000;stroke-width:0.264583px;stroke-linecap:butt;stroke-linejoin:miter;stroke-opacity:1" d="m 99.785714,257.77976 c 0.629956,-1.00794 1.259916,-2.01587 1.889876,-3.02381 0.62997,-0.75595 1.34404,-1.4491 1.88988,-2.26786 2.34823,-3.52234 0.42224,-1.57829 1.88989,-3.77976 0.59709,-0.89564 1.88988,-1.84588 1.88988,-3.02381" id="path727" class="AmJctTJc_17"></path>
    <path style="fill:none;stroke:#000000;stroke-width:0.264583px;stroke-linecap:butt;stroke-linejoin:miter;stroke-opacity:1" d="m 18.142857,139.09524 c 9.462098,0.68771 12.445627,-5.87565 16.630952,-12.85119 0.06482,-0.10804 0.01564,0.25295 0,0.37797 -0.110504,0.88402 -0.203256,1.77224 -0.377976,2.64584 -1.477277,7.38638 -2.930041,14.75266 -3.401785,22.30059 -0.11003,1.76046 0,3.52778 0,5.29167 0,0.50396 0,2.01587 0,1.5119 0,-6.00356 1.043964,-12.22145 1.889879,-18.14286 0.844746,-5.91322 2.691638,-18.68223 11.717263,-16.63095 7.605885,1.72861 0.886296,9.74617 -1.889881,12.09524 -3.869032,3.2738 -5.51986,3.38704 -9.827382,4.53571 -0.501938,0.13385 -1.002514,0.2761 -1.511903,0.37798 -0.123545,0.0247 -0.486013,-0.0648 -0.377976,0 3.475934,2.08556 2.056635,0.16675 6.047618,4.15774 4.382146,4.38215 6.484816,10.60519 13.607143,10.96131 4.330038,0.2165 8.901451,-1.48395 10.205357,-6.04762 0.0071,-0.0249 0.976336,-5.66964 -1.511906,-5.66964 -4.935024,0 -3.693213,10.4401 -0.377976,12.85119 4.854382,3.53046 12.814623,-6.87869 15.875,-9.44941 1.447091,-1.21555 3.011704,-2.28418 4.535715,-3.40178 0.366326,-0.26864 1.455147,-0.43474 1.133927,-0.75596 -0.445447,-0.44545 -1.304975,-0.23396 -1.889879,0 -1.364218,0.54569 -2.740805,1.2289 -3.779763,2.26786 -0.14999,0.14999 -7.445534,9.4291 -2.267857,9.82738 7.315141,0.56271 7.139627,-12.09524 8.315478,-12.09524 0.62996,0 -0.04832,1.26178 0,1.88989 0.07791,1.01278 0.201448,2.02348 0.377976,3.0238 0.796734,4.51483 3.598857,9.55278 9.071427,6.4256 1.708753,-0.97643 3.444031,-2.14224 4.535715,-3.77976 1.752777,-2.62917 2.713429,-5.71895 3.779761,-8.69345 1.331685,-3.71471 2.299496,-7.55018 3.401786,-11.33929 0.91367,-3.14075 1.776,-6.29624 2.64583,-9.4494 0.13815,-0.50078 0.6103,-1.97654 0.37798,-1.51191 -0.35636,0.71272 -0.59451,1.48754 -0.75595,2.26786 -1.90596,9.2121 -1.36029,8.08429 -2.26786,17.3869 -0.27656,2.83471 -2.998506,14.5563 2.64583,15.49703 4.40159,0.73359 7.89345,-5.70464 9.82738,-8.69346 0.45915,-0.70959 0.5363,-1.67022 1.13393,-2.26785 0.36733,-0.36733 -0.28224,1.00132 -0.37797,1.5119 -0.28247,1.50651 -0.82556,3.00454 -0.75596,4.53572 0.0736,1.6189 1.39488,5.29166 2.64584,5.29166 4.65576,0 13.40218,-7.53823 16.25297,-11.33928 0.37798,-0.50397 -1.27204,0.55141 -1.5119,1.13393 -0.68685,1.66805 -1.37767,3.50427 -1.13393,5.29166 0.82748,6.06815 9.39744,3.21893 10.96131,-0.37797 2.31374,-5.3216 -5.02069,-7.32418 -8.31548,-6.4256 -2.00626,0.54716 0.14331,2.55578 1.13393,2.64583 3.3239,0.30218 11.79639,-1.92379 14.3631,-3.02381 1.92737,-0.82601 3.56371,-2.21381 5.29166,-3.40178 0.29366,-0.20189 0.75596,-1.11231 0.75596,-0.75595 0,4.15242 -2.0705,9.61326 -3.40179,13.60714 -0.0797,0.23905 -0.0993,-0.52434 0,-0.75595 0.66587,-1.55369 1.23939,-3.19424 2.26786,-4.53572 4.41476,-5.75839 5.82275,-6.67507 11.33928,-9.82738 0.98605,-0.56346 0.18087,1.68003 0,2.26786 -0.91105,2.96092 -3.63313,8.08412 -0.75595,10.96131 0.59763,0.59763 1.43909,1.29968 2.26786,1.13393 3.57019,-0.71404 10.00692,-5.98942 11.71726,-8.31548 1.53867,-2.09259 1.97774,-4.80411 3.02381,-7.18155 0.34039,-0.7736 0.7146,-1.53403 1.13393,-2.26785 0.0884,-0.15471 0.29829,-0.53735 0.37797,-0.37798 2.3532,4.7064 2.02617,8.98057 -2.64583,12.09524 -1.36281,0.90854 -2.98187,1.37193 -4.53571,1.88988 -0.47811,0.15937 -1.86827,-0.35636 -1.51191,0 0.99606,0.99605 2.48152,1.34325 3.77976,1.88988 8.13079,3.42349 11.73158,2.2607 19.27679,-1.51191" id="path284" class="AmJctTJc_18"></path>
    <path style="fill:none;stroke:#000000;stroke-width:0.264583px;stroke-linecap:butt;stroke-linejoin:miter;stroke-opacity:1" d="m 82.398808,136.4494 c 1.889882,0 3.806817,0.31864 5.669643,0 7.74561,-1.3249 15.382519,-3.2228 23.056549,-4.91369 10.83244,-2.38681 21.72846,-4.86515 32.50595,-7.55952" id="path286" class="AmJctTJc_19"></path>
    <path style="fill:none;stroke:#000000;stroke-width:0.264583px;stroke-linecap:butt;stroke-linejoin:miter;stroke-opacity:1" d="m 104.6994,30.238094 c -7.486968,6.111015 1.40201,4.487447 2.26786,1.889881 0.0679,-0.203708 -1.4045,-1.242359 -2.26786,-1.889881 z" id="path288" class="AmJctTJc_20"></path>
    <path style="fill:none;stroke:#000000;stroke-width:0.264583px;stroke-linecap:butt;stroke-linejoin:miter;stroke-opacity:1" d="m 103.56547,70.303572 c -7.256709,6.851298 5.88081,0.546301 2.64584,-0.377979 -0.85662,-0.244747 -1.76389,0.251987 -2.64584,0.377979 z" id="path290" class="AmJctTJc_21"></path>
    <path style="fill:none;stroke:#000000;stroke-width:0.264583px;stroke-linecap:butt;stroke-linejoin:miter;stroke-opacity:1" d="m 165.17559,68.791666 c 0,0.881943 -0.57396,1.97621 0,2.645833 1.64914,1.923992 6.97197,-4.040227 0,-2.645833 z" id="path292" class="AmJctTJc_22"></path>
    <path style="fill:none;stroke:#000000;stroke-width:0.264583px;stroke-linecap:butt;stroke-linejoin:miter;stroke-opacity:1" d="m 114.90476,134.9375 c -0.50397,0.75595 -1.59416,1.36304 -1.5119,2.26786 0.46252,5.08777 9.5203,-0.98431 1.5119,-2.26786 z" id="path294" class="AmJctTJc_23"></path>
  </g>
<style data-made-with="vivus-instant">.AmJctTJc_0{stroke-dasharray:380 382;stroke-dashoffset:381;animation:AmJctTJc_draw_0 7400ms ease-in-out 0ms infinite,AmJctTJc_fade 7400ms linear 0ms infinite;}.AmJctTJc_1{stroke-dasharray:29 31;stroke-dashoffset:30;animation:AmJctTJc_draw_1 7400ms ease-in-out 0ms infinite,AmJctTJc_fade 7400ms linear 0ms infinite;}.AmJctTJc_2{stroke-dasharray:65 67;stroke-dashoffset:66;animation:AmJctTJc_draw_2 7400ms ease-in-out 0ms infinite,AmJctTJc_fade 7400ms linear 0ms infinite;}.AmJctTJc_3{stroke-dasharray:606 608;stroke-dashoffset:607;animation:AmJctTJc_draw_3 7400ms ease-in-out 0ms infinite,AmJctTJc_fade 7400ms linear 0ms infinite;}.AmJctTJc_4{stroke-dasharray:38 40;stroke-dashoffset:39;animation:AmJctTJc_draw_4 7400ms ease-in-out 0ms infinite,AmJctTJc_fade 7400ms linear 0ms infinite;}.AmJctTJc_5{stroke-dasharray:82 84;stroke-dashoffset:83;animation:AmJctTJc_draw_5 7400ms ease-in-out 0ms infinite,AmJctTJc_fade 7400ms linear 0ms infinite;}.AmJctTJc_6{stroke-dasharray:115 117;stroke-dashoffset:116;animation:AmJctTJc_draw_6 7400ms ease-in-out 0ms infinite,AmJctTJc_fade 7400ms linear 0ms infinite;}.AmJctTJc_7{stroke-dasharray:109 111;stroke-dashoffset:110;animation:AmJctTJc_draw_7 7400ms ease-in-out 0ms infinite,AmJctTJc_fade 7400ms linear 0ms infinite;}.AmJctTJc_8{stroke-dasharray:40 42;stroke-dashoffset:41;animation:AmJctTJc_draw_8 7400ms ease-in-out 0ms infinite,AmJctTJc_fade 7400ms linear 0ms infinite;}.AmJctTJc_9{stroke-dasharray:78 80;stroke-dashoffset:79;animation:AmJctTJc_draw_9 7400ms ease-in-out 0ms infinite,AmJctTJc_fade 7400ms linear 0ms infinite;}.AmJctTJc_10{stroke-dasharray:79 81;stroke-dashoffset:80;animation:AmJctTJc_draw_10 7400ms ease-in-out 0ms infinite,AmJctTJc_fade 7400ms linear 0ms infinite;}.AmJctTJc_11{stroke-dasharray:37 39;stroke-dashoffset:38;animation:AmJctTJc_draw_11 7400ms ease-in-out 0ms infinite,AmJctTJc_fade 7400ms linear 0ms infinite;}.AmJctTJc_12{stroke-dasharray:13 15;stroke-dashoffset:14;animation:AmJctTJc_draw_12 7400ms ease-in-out 0ms infinite,AmJctTJc_fade 7400ms linear 0ms infinite;}.AmJctTJc_13{stroke-dasharray:40 42;stroke-dashoffset:41;animation:AmJctTJc_draw_13 7400ms ease-in-out 0ms infinite,AmJctTJc_fade 7400ms linear 0ms infinite;}.AmJctTJc_14{stroke-dasharray:17 19;stroke-dashoffset:18;animation:AmJctTJc_draw_14 7400ms ease-in-out 0ms infinite,AmJctTJc_fade 7400ms linear 0ms infinite;}.AmJctTJc_15{stroke-dasharray:13 15;stroke-dashoffset:14;animation:AmJctTJc_draw_15 7400ms ease-in-out 0ms infinite,AmJctTJc_fade 7400ms linear 0ms infinite;}.AmJctTJc_16{stroke-dasharray:22 24;stroke-dashoffset:23;animation:AmJctTJc_draw_16 7400ms ease-in-out 0ms infinite,AmJctTJc_fade 7400ms linear 0ms infinite;}.AmJctTJc_17{stroke-dasharray:15 17;stroke-dashoffset:16;animation:AmJctTJc_draw_17 7400ms ease-in-out 0ms infinite,AmJctTJc_fade 7400ms linear 0ms infinite;}.AmJctTJc_18{stroke-dasharray:576 578;stroke-dashoffset:577;animation:AmJctTJc_draw_18 7400ms ease-in-out 0ms infinite,AmJctTJc_fade 7400ms linear 0ms infinite;}.AmJctTJc_19{stroke-dasharray:63 65;stroke-dashoffset:64;animation:AmJctTJc_draw_19 7400ms ease-in-out 0ms infinite,AmJctTJc_fade 7400ms linear 0ms infinite;}.AmJctTJc_20{stroke-dasharray:15 17;stroke-dashoffset:16;animation:AmJctTJc_draw_20 7400ms ease-in-out 0ms infinite,AmJctTJc_fade 7400ms linear 0ms infinite;}.AmJctTJc_21{stroke-dasharray:14 16;stroke-dashoffset:15;animation:AmJctTJc_draw_21 7400ms ease-in-out 0ms infinite,AmJctTJc_fade 7400ms linear 0ms infinite;}.AmJctTJc_22{stroke-dasharray:12 14;stroke-dashoffset:13;animation:AmJctTJc_draw_22 7400ms ease-in-out 0ms infinite,AmJctTJc_fade 7400ms linear 0ms infinite;}.AmJctTJc_23{stroke-dasharray:15 17;stroke-dashoffset:16;animation:AmJctTJc_draw_23 7400ms ease-in-out 0ms infinite,AmJctTJc_fade 7400ms linear 0ms infinite;}@keyframes AmJctTJc_draw{100%{stroke-dashoffset:0;}}@keyframes AmJctTJc_fade{0%{stroke-opacity:1;}94.5945945945946%{stroke-opacity:1;}100%{stroke-opacity:0;}}@keyframes AmJctTJc_draw_0{10.81081081081081%{stroke-dashoffset: 381}56.75675675675676%{ stroke-dashoffset: 0;}100%{ stroke-dashoffset: 0;}}@keyframes AmJctTJc_draw_1{10.81081081081081%{stroke-dashoffset: 30}56.75675675675676%{ stroke-dashoffset: 0;}100%{ stroke-dashoffset: 0;}}@keyframes AmJctTJc_draw_2{10.81081081081081%{stroke-dashoffset: 66}56.75675675675676%{ stroke-dashoffset: 0;}100%{ stroke-dashoffset: 0;}}@keyframes AmJctTJc_draw_3{10.81081081081081%{stroke-dashoffset: 607}56.75675675675676%{ stroke-dashoffset: 0;}100%{ stroke-dashoffset: 0;}}@keyframes AmJctTJc_draw_4{10.81081081081081%{stroke-dashoffset: 39}56.75675675675676%{ stroke-dashoffset: 0;}100%{ stroke-dashoffset: 0;}}@keyframes AmJctTJc_draw_5{10.81081081081081%{stroke-dashoffset: 83}56.75675675675676%{ stroke-dashoffset: 0;}100%{ stroke-dashoffset: 0;}}@keyframes AmJctTJc_draw_6{10.81081081081081%{stroke-dashoffset: 116}56.75675675675676%{ stroke-dashoffset: 0;}100%{ stroke-dashoffset: 0;}}@keyframes AmJctTJc_draw_7{10.81081081081081%{stroke-dashoffset: 110}56.75675675675676%{ stroke-dashoffset: 0;}100%{ stroke-dashoffset: 0;}}@keyframes AmJctTJc_draw_8{10.81081081081081%{stroke-dashoffset: 41}56.75675675675676%{ stroke-dashoffset: 0;}100%{ stroke-dashoffset: 0;}}@keyframes AmJctTJc_draw_9{10.81081081081081%{stroke-dashoffset: 79}56.75675675675676%{ stroke-dashoffset: 0;}100%{ stroke-dashoffset: 0;}}@keyframes AmJctTJc_draw_10{10.81081081081081%{stroke-dashoffset: 80}56.75675675675676%{ stroke-dashoffset: 0;}100%{ stroke-dashoffset: 0;}}@keyframes AmJctTJc_draw_11{10.81081081081081%{stroke-dashoffset: 38}56.75675675675676%{ stroke-dashoffset: 0;}100%{ stroke-dashoffset: 0;}}@keyframes AmJctTJc_draw_12{10.81081081081081%{stroke-dashoffset: 14}56.75675675675676%{ stroke-dashoffset: 0;}100%{ stroke-dashoffset: 0;}}@keyframes AmJctTJc_draw_13{10.81081081081081%{stroke-dashoffset: 41}56.75675675675676%{ stroke-dashoffset: 0;}100%{ stroke-dashoffset: 0;}}@keyframes AmJctTJc_draw_14{10.81081081081081%{stroke-dashoffset: 18}56.75675675675676%{ stroke-dashoffset: 0;}100%{ stroke-dashoffset: 0;}}@keyframes AmJctTJc_draw_15{10.81081081081081%{stroke-dashoffset: 14}56.75675675675676%{ stroke-dashoffset: 0;}100%{ stroke-dashoffset: 0;}}@keyframes AmJctTJc_draw_16{10.81081081081081%{stroke-dashoffset: 23}56.75675675675676%{ stroke-dashoffset: 0;}100%{ stroke-dashoffset: 0;}}@keyframes AmJctTJc_draw_17{10.81081081081081%{stroke-dashoffset: 16}56.75675675675676%{ stroke-dashoffset: 0;}100%{ stroke-dashoffset: 0;}}@keyframes AmJctTJc_draw_18{10.81081081081081%{stroke-dashoffset: 577}56.75675675675676%{ stroke-dashoffset: 0;}100%{ stroke-dashoffset: 0;}}@keyframes AmJctTJc_draw_19{10.81081081081081%{stroke-dashoffset: 64}56.75675675675676%{ stroke-dashoffset: 0;}100%{ stroke-dashoffset: 0;}}@keyframes AmJctTJc_draw_20{10.81081081081081%{stroke-dashoffset: 16}56.75675675675676%{ stroke-dashoffset: 0;}100%{ stroke-dashoffset: 0;}}@keyframes AmJctTJc_draw_21{10.81081081081081%{stroke-dashoffset: 15}56.75675675675676%{ stroke-dashoffset: 0;}100%{ stroke-dashoffset: 0;}}@keyframes AmJctTJc_draw_22{10.81081081081081%{stroke-dashoffset: 13}56.75675675675676%{ stroke-dashoffset: 0;}100%{ stroke-dashoffset: 0;}}@keyframes AmJctTJc_draw_23{10.81081081081081%{stroke-dashoffset: 16}56.75675675675676%{ stroke-dashoffset: 0;}100%{ stroke-dashoffset: 0;}}</style></svg>
