<!--?xml version="1.0" encoding="UTF-8" standalone="no"?-->
<svg class="my-svg" xmlns:dc="http://purl.org/dc/elements/1.1/" xmlns:cc="http://creativecommons.org/ns#" xmlns:rdf="http://www.w3.org/1999/02/22-rdf-syntax-ns#" xmlns:svg="http://www.w3.org/2000/svg" xmlns="http://www.w3.org/2000/svg" xmlns:sodipodi="http://sodipodi.sourceforge.net/DTD/sodipodi-0.dtd" xmlns:inkscape="http://www.inkscape.org/namespaces/inkscape" width="210mm" height="297mm" viewBox="0 0 210 297" version="1.1" id="svg432" sodipodi:docname="2.svg" inkscape:version="1.0.2 (e86c8708, 2021-01-15)" style="">
  <defs id="defs426">
    <inkscape:path-effect effect="skeletal" id="path-effect440" is_visible="true" lpeversion="1" pattern="M 0,5 C 0,2.24 2.24,0 5,0 7.76,0 10,2.24 10,5 10,7.76 7.76,10 5,10 2.24,10 0,7.76 0,5 Z" copytype="single_stretched" prop_scale="1" scale_y_rel="false" spacing="0" normal_offset="0" tang_offset="0" prop_units="false" vertical_pattern="false" hide_knot="false" fuse_tolerance="0"></inkscape:path-effect>
    <inkscape:path-effect effect="bspline" id="path-effect438" is_visible="true" lpeversion="1" weight="33.333333" steps="2" helper_size="0" apply_no_weight="true" apply_with_weight="true" only_selected="false"></inkscape:path-effect>
  </defs>
  <sodipodi:namedview id="base" pagecolor="#ffffff" bordercolor="#666666" borderopacity="1.0" inkscape:pageopacity="0.0" inkscape:pageshadow="2" inkscape:zoom="0.35" inkscape:cx="400" inkscape:cy="445.71429" inkscape:document-units="mm" inkscape:current-layer="layer1" inkscape:document-rotation="0" showgrid="false" inkscape:window-width="1252" inkscape:window-height="704" inkscape:window-x="19" inkscape:window-y="23" inkscape:window-maximized="0"></sodipodi:namedview>
  <metadata id="metadata429">
    <rdf:rdf>
      <cc:work rdf:about="">
        <dc:format>image/svg+xml</dc:format>
        <dc:type rdf:resource="http://purl.org/dc/dcmitype/StillImage"></dc:type>
        <dc:title></dc:title>
      </cc:work>
    </rdf:rdf>
  </metadata>
  <g inkscape:label="Layer 1" inkscape:groupmode="layer" id="layer1">
    <path style="fill:none;stroke:#000000;stroke-width:0.152652px;stroke-linecap:butt;stroke-linejoin:miter;stroke-opacity:1" d="m 5.6738117,17.173178 c 1.069249,-0.09025 2.149066,0.128931 3.216994,0 3.4327913,-0.414443 6.8475233,-2.120325 10.2186883,-3.01573 3.922383,-1.041813 3.313654,-0.776586 6.433988,-1.507865 0.231189,-0.05418 1.797649,-0.396289 0.378471,-0.251311 -2.448415,0.250121 -5.110191,0.377481 -7.380163,1.759176 -2.019423,1.229187 -9.2817863,9.286183 -6.43399,13.068159 2.295961,3.049119 6.922842,3.301947 9.840218,2.010487 1.367215,-0.605236 2.669937,-1.446852 3.973935,-2.261799 2.281609,-1.42591 1.865773,-0.969948 2.838523,-2.261795 0.252314,-0.335081 1.11101,-0.946467 0.75694,-1.005243 -2.722904,-0.452015 -7.228676,5.79693 -3.027758,7.036701 2.15515,0.636026 6.08373,-0.677462 6.623223,-4.020972 0.440783,-2.731759 -2.043095,-2.876476 -3.40623,-3.015729 -2.160519,-0.220711 -0.404922,-0.233746 -1.13541,0.251312 -0.05642,0.03746 -0.247801,-0.03111 -0.189234,0 1.791887,0.951874 3.397244,0.86344 5.298578,0.25131 1.221447,-0.393242 2.398929,-0.997103 3.595466,-1.507866 0.569705,-0.243189 1.140729,-0.482344 1.703114,-0.753932 0.132555,-0.06402 0.278733,-0.383763 0.378468,-0.251311 0.09974,0.132454 -0.152121,0.321907 -0.189234,0.502623 -0.153016,0.745109 -0.347903,1.49054 -0.378469,2.261796 -0.04068,1.026394 0.379647,4.172385 0.567703,4.272282 1.846789,0.981041 5.835621,-6.352964 6.812459,-6.78539 0.08463,-0.03746 0.107242,0.204645 0.189236,0.251312 0.366685,0.208701 0.739199,0.440717 1.135408,0.50262 0.68911,0.107666 1.391967,0.10176 2.081586,0 0.103588,-0.01528 2.20016,-0.926507 2.460053,-0.753932 0.252314,0.167542 -0.541594,0.260632 -0.756938,0.502623 -0.622643,0.699676 -3.02776,3.483263 -3.02776,5.026215 0,0.750997 0.844506,1.713628 1.324645,1.759175 1.979633,0.187788 7.430405,-3.516376 8.894041,-4.272284 0.799622,-0.412969 1.641149,-0.665389 2.460052,-1.005241 0.26926,-0.111746 1.036861,-0.456155 0.756942,-0.502624 -1.21757,-0.202122 -1.786095,-0.09638 -2.83852,0.502624 -1.293754,0.736348 -4.385093,5.018073 -1.32465,5.780146 0.61998,0.154378 1.322294,0.35861 1.892348,0 3.24097,-2.038791 4.211771,-10.828878 4.730879,-14.827335 0.130382,-1.004291 0.200725,-2.024333 0.378468,-3.015729 0.138606,-0.773103 0.395752,-1.500599 0.567704,-2.2617974 0.01812,-0.08024 0.03129,-0.324044 0,-0.251311 -1.010563,2.3486164 -3.750524,14.1511994 -2.460051,17.0891324 0.269689,0.613986 0.67957,1.13533 1.135411,1.507865 2.713113,2.217303 6.413383,-1.945682 8.326336,-3.518351" id="path559" class="iuwPquLs_0"></path>
    <path style="fill:none;stroke:#000000;stroke-width:0.140792px;stroke-linecap:butt;stroke-linejoin:miter;stroke-opacity:1" d="m 80.892841,9.8039996 c -0.366775,3.7967604 -0.528277,7.6421324 -0.748472,11.4582834 -0.0957,1.65861 -0.374236,3.313667 -0.374236,4.972462" id="path613" class="iuwPquLs_1"></path>
    <path style="fill:none;stroke:#000000;stroke-width:0.140792px;stroke-linecap:butt;stroke-linejoin:miter;stroke-opacity:1" d="m 93.804024,10.668776 c -1.422835,-4.3179844 -8.786337,0.08052 -6.549149,2.378133 1.34214,1.378388 3.587582,0.589462 4.865088,-0.432387 0.362619,-0.290055 0.623718,-0.720647 0.935594,-1.08097 0.249481,-0.288259 0.792235,-1.269288 0.748467,-0.864776 -0.183888,1.69973 -1.258046,3.115553 -1.684061,4.756268 -0.667376,2.570245 -0.972899,5.375426 -1.49695,7.99918 -0.136275,0.682261 -0.195389,2.820073 -0.561356,3.24291" id="path615" class="iuwPquLs_2"></path>
    <path style="fill:none;stroke:#000000;stroke-width:0.193082px;stroke-linecap:butt;stroke-linejoin:miter;stroke-opacity:1" d="m 61.5955,50.187919 c 3.030154,-1.140838 3.60427,-1.087986 6.254848,-3.47886 1.26166,-1.138042 2.265076,-2.505294 3.411735,-3.746467 0.748822,-0.810542 1.551846,-1.577112 2.274491,-2.408441 0.134191,-0.154373 0.37908,-0.713612 0.28431,-0.53521 -0.786486,1.480542 -0.97431,1.599412 -1.137245,3.746467 -0.324643,4.277924 0.104906,8.888188 0.852935,13.11263 0.254947,1.4398 0.564057,2.220019 1.137243,3.478861 0.08348,0.183334 0.08327,0.598285 0.284311,0.53521 2.16714,-0.679932 7.331757,-9.947945 8.245028,-11.774607 0.779344,-1.558794 1.341046,-3.206102 1.990179,-4.816885 0.393402,-0.976209 0.739043,-1.969167 1.137244,-2.943651 0.07607,-0.186168 0.48535,-0.598285 0.284311,-0.535211 -2.205706,0.692032 -3.761102,7.88698 -4.264669,9.901376 -0.132033,0.528167 -0.202787,1.068488 -0.284311,1.605626 -0.0134,0.08831 -0.08799,0.234477 0,0.267606 2.956255,1.113015 7.719842,-1.753741 10.519516,-2.676047 0.848596,-0.279557 1.697648,-0.55965 2.558802,-0.802814 0.09077,-0.02563 0.376252,-0.02164 0.284311,0 -1.943425,0.457306 -1.739804,0.04925 -3.980357,1.338022 -1.288653,0.741235 -7.959139,5.48701 -5.117603,7.492932 0.461172,0.325556 1.150432,0.412826 1.705867,0.267606 4.345144,-1.136061 5.151118,-4.177897 7.107782,-7.492931 0.331887,-0.562297 0.740026,-1.082203 1.137244,-1.605629 0.0779,-0.102654 0.379081,-0.356806 0.284311,-0.267605 -1.919457,1.806668 -3.182815,4.220494 -1.990179,6.690117 0.255434,0.528932 0.881484,2.006993 1.990179,1.605629 1.75487,-0.635289 4.116267,-2.99504 5.401917,-4.014071 2.04167,-1.618272 3.9739,-2.788998 6.53915,-3.478861 0.0911,-0.0245 0.37909,0 0.28432,0 -0.37909,0 -0.76553,-0.06998 -1.13725,0 -2.64101,0.497163 -7.21148,3.299911 -5.40191,6.422512 0.29058,0.501427 0.86141,0.85074 1.42155,1.07042 5.35909,2.101739 7.66083,-5.022172 11.08814,-6.957724 0.77095,-0.435385 1.70066,-0.5504 2.5588,-0.802813 0.65854,-0.1937 1.32084,-0.377707 1.99018,-0.535209 0.0919,-0.02164 0.37724,-0.01749 0.28431,0 -0.84657,0.159364 -3.75184,0.518879 -4.26466,0.802814 -1.92272,1.064547 -4.0092,3.719319 -1.99018,5.619699 3.11064,2.92786 8.98888,-0.533727 11.65676,-2.140838 1.02222,-0.615782 1.88879,-1.435076 2.84311,-2.140837 0.3726,-0.275554 1.6111,-0.802816 1.13725,-0.802816 -2.19738,0 -6.76581,6.654564 -3.12743,7.225328 0.74785,0.117317 1.56788,0.258646 2.27449,0 1.01694,-0.372237 5.35889,-3.777933 5.97054,-4.281675 0.13742,-0.113182 1.70587,-1.611613 1.70587,-1.605628 0,1.616268 -0.3522,2.052848 -0.56862,3.478861 -0.0268,0.176611 -0.0311,0.711184 0,0.535209 0.1256,-0.70938 -0.0319,-1.486133 0.2843,-2.140838 0.61894,-1.281637 3.66319,-6.107573 6.25485,-5.619698 0.86885,0.16356 -2.41229,6.900964 0,7.225327 2.83293,0.380922 7.00122,-3.843809 8.81365,-5.084489 0.72306,-0.494962 1.46271,-0.985376 2.27449,-1.338025 0.54421,-0.236415 2.30524,-0.535209 1.70587,-0.535209 -3.30814,0 -10.07523,4.316339 -5.40192,5.887304 3.41603,1.148323 5.00743,-2.368788 6.25485,-4.54928 0.20093,-0.351238 0.56862,-1.469341 0.56862,-1.070419 0,1.326077 -1.24681,2.43063 -1.42155,3.746466 -0.18146,1.366334 0.54746,4.376684 2.84311,3.746465 7.12205,-1.955201 9.50717,-8.656083 11.94107,-14.450652 0.62814,-1.495475 1.23651,-3.003051 1.70587,-4.549281 0.13017,-0.428847 0.30838,-1.676658 0,-1.338024 -0.61676,0.677269 -1.31371,1.328778 -1.70587,2.140839 -1.49457,3.094845 -3.76817,12.817081 -1.13725,15.788676 1.19954,1.354861 8.52934,-3.690909 8.52934,-5.352094 0,-0.199459 -0.46816,0.09199 -0.56862,0.267605 -0.5841,1.021013 -1.21902,2.067414 -1.42156,3.211257 -0.49313,2.784939 4.80024,2.696681 6.25485,2.408442 2.91623,-0.577867 2.66394,-1.207251 3.98036,-3.478862 0.10148,-0.175104 0.43416,-0.676249 0.28431,-0.535208 -1.30955,1.23259 -2.85861,5.568733 0.85293,4.281674 5.04244,-1.748577 3.26975,-7.400952 0.28431,-7.225325 -4.26804,0.251077 -2.83819,4.013201 1.70587,3.211254 1.97375,-0.348331 3.80861,-1.202883 5.68622,-1.873232 1.57725,-0.563111 3.12743,-1.798624 3.12743,-0.535209 0,1.349864 -0.31208,2.68598 -0.56862,4.01407 -0.12342,0.638923 -0.40129,1.243226 -0.56863,1.873233 -0.023,0.08654 -0.0403,0.348317 0,0.267605 0.79487,-1.589826 1.21467,-3.370445 2.27449,-4.816884 0.87588,-1.195385 2.19396,-2.052151 3.41174,-2.943653 5.04318,-3.691984 -1.36819,6.836963 1.42156,8.295747 0.57991,0.303241 1.39682,0.279245 1.99017,0 2.78386,-1.310137 3.41173,-3.523483 3.41173,-6.154909" id="path627" class="iuwPquLs_3"></path>
    <path style="fill:none;stroke:#000000;stroke-width:0.193082px;stroke-linecap:butt;stroke-linejoin:miter;stroke-opacity:1" d="m 154.84958,42.788713 c 9.50221,-0.125721 18.94297,-2.140838 28.43113,-2.140838" id="path629" class="iuwPquLs_4"></path>
    <path style="fill:none;stroke:#000000;stroke-width:0.172691px;stroke-linecap:butt;stroke-linejoin:miter;stroke-opacity:1" d="m 79.280964,144.54558 c -0.90055,-0.95548 -4.84191,-1.67844 -5.98765,-2.54114 0,1.3443 -3.18429,4.78944 -2.63457,6.35284 -1.83787,0 0.51492,0.11979 -0.71852,-0.25412 -2.75705,-0.83577 -5.59873,-1.49226 -8.38271,-2.28702 0.62331,-3.96793 -0.3694,1.42991 1.19753,-3.55759 0.36147,-1.15055 0.4045,-2.39147 0.71852,-3.55759 0.6553,-2.43344 1.64337,-4.72259 2.39506,-7.11519 1.56267,-4.97392 -0.85486,1.15136 1.43704,-4.31993 0.61924,-1.47827 1.1386,-2.94517 1.91604,-4.31993 0.1837,-0.32483 0.36611,-0.65708 0.47902,-1.01646 0.0252,-0.0804 -0.0714,-0.29196 0,-0.25411 0.73236,0.38852 2.13843,1.60718 2.87407,2.03291 1.08308,0.6268 4.05991,2.03291 5.26913,2.03291 0.65514,2.4388 -0.95802,4.75013 -0.95802,7.11518 0.63868,0.33882 1.26598,0.70295 1.91604,1.01646 1.26394,0.60955 2.3225,1.61324 3.59259,2.28702 0.0948,0.0503 1.56757,0.50823 0.71852,0.50823" id="path673" class="iuwPquLs_5"></path>
    <path style="fill:none;stroke:#000000;stroke-width:0.172691px;stroke-linecap:butt;stroke-linejoin:miter;stroke-opacity:1" d="m 90.058734,120.15066 c -1.27094,1.34845 -1.67416,5.24703 -2.63457,7.11518 -0.94946,1.84683 -1.82397,3.80786 -2.87407,5.5905 -0.42313,0.71829 -1.08,1.27529 -1.43704,2.03291 -0.14721,0.31238 -0.12392,0.68944 -0.2395,1.01646 -0.25073,0.70938 -0.73222,1.31416 -0.95803,2.0329 -0.46009,1.46448 -0.53972,3.09468 -0.95802,4.57405 -0.74635,2.63955 -2.43343,5.67193 -3.59259,8.13164 -0.63486,1.34715 -0.75114,3.02619 -1.43704,4.31993 -0.47776,0.90116 -1.11769,1.69409 -1.67654,2.54113 -0.17101,0.83197 -2.95105,8.39484 -2.87407,8.63987 0.0161,0.0512 6.30726,2.79525 7.18518,2.79525 0.68618,0 3.58005,-5.55059 3.83209,-6.35284 0.0757,-0.24107 -0.047,-0.51315 0,-0.76234 0.0902,-0.47863 0.51183,-1.08608 0.71852,-1.52469 0.14119,-0.29959 1.67654,-4.22619 1.67654,-3.04936" id="path675" class="iuwPquLs_6"></path>
    <path style="fill:none;stroke:#000000;stroke-width:0.172691px;stroke-linecap:butt;stroke-linejoin:miter;stroke-opacity:1" d="m 90.058734,120.15066 c 1.51924,0.0322 2.57005,0.85517 3.83209,1.52468 0.79046,0.41933 1.83927,0.9893 2.63457,1.27057 0.2449,0.0866 1.25878,0.065 1.43703,0.25411 0.0565,0.0599 -0.0564,0.19422 0,0.25411 0.11291,0.11979 0.3362,-0.0758 0.47901,0 1.09613,0.58149 -1.01632,-0.10532 0.71852,0.50823 0.15148,0.0536 0.47902,-0.16941 0.47902,0 0,0.24364 -0.83864,1.6529 -0.95803,2.03291 -0.0757,0.24107 0.10711,0.53506 0,0.76234 -0.40872,0.8673 -0.41364,2.07895 -0.71852,3.04937 -0.28032,0.89228 -1.55242,2.33898 -1.91604,3.30347 -0.23663,0.62765 -0.5611,1.61894 -0.71852,2.28702 -0.0581,0.24653 0.10711,0.53507 0,0.76235 -0.16551,0.3512 -0.47901,0.59124 -0.47901,1.01645" id="path679" class="iuwPquLs_7"></path>
    <path style="fill:none;stroke:#000000;stroke-width:0.172691px;stroke-linecap:butt;stroke-linejoin:miter;stroke-opacity:1" d="m 84.789594,157.25125 c 2.40129,0.11274 4.37945,1.33795 6.46667,2.28702 0.84548,0.38445 1.79787,0.5726 2.63456,1.01646 0.25746,0.13658 0.449,0.40099 0.71852,0.50823 0.38116,0.15165 0.81496,0.10651 1.19753,0.25411 4.390936,1.69409 -0.79835,0 2.39506,1.27057 1.984446,0.78955 3.820126,1.86543 5.748136,2.79525 1.41545,0.68263 2.86031,1.01159 4.31111,1.52468 1.07537,0.38031 2.11384,0.99433 3.11358,1.52469 1.52594,0.8095 3.22829,1.15738 4.79012,1.77879 0.26952,0.10723 0.45394,0.38792 0.71852,0.50823 2.60437,1.18423 5.50896,1.67729 8.1432,2.79525 0.82588,0.3505 1.56918,0.92006 2.39505,1.27057 0.7606,0.3228 1.3354,0.40037 1.91606,1.01646" id="path681" class="iuwPquLs_8"></path>
    <path style="fill:none;stroke:#000000;stroke-width:0.172691px;stroke-linecap:butt;stroke-linejoin:miter;stroke-opacity:1" d="m 94.848854,137.17627 c 0.47901,0.0847 0.97189,0.10606 1.43703,0.25411 0.98101,0.31226 1.97338,1.04687 2.87407,1.52469 0.59127,0.31366 1.324776,0.44867 1.916046,0.76234 0.98381,0.5219 1.8149,1.11603 2.87407,1.52469 1.74066,0.67156 3.52597,1.4164 5.26914,2.0329 0.15147,0.0535 0.33076,-0.0629 0.47901,0 0.26726,0.11343 0.46105,0.37164 0.71852,0.50823 1.49927,0.79536 0.78341,0.27706 2.15555,0.76235 2.47393,0.87493 4.96635,2.07125 7.42468,3.04936 0.99381,0.3954 1.91182,1.1163 2.87408,1.52468 0.87085,0.36958 1.97643,0.59317 2.87407,1.01645 1.28832,0.60751 2.53712,1.40838 3.8321,2.03291 2.74749,1.32503 -0.33377,-0.20275 2.39505,0.76234 1.13601,0.40176 2.22996,1.07782 3.35309,1.52468 1.80097,0.71655 3.6404,1.16888 5.26913,2.03291" id="path683" class="iuwPquLs_9"></path>
    <path style="fill:none;stroke:#000000;stroke-width:0.172691px;stroke-linecap:butt;stroke-linejoin:miter;stroke-opacity:1" d="m 129.33771,175.80156 c 0.47542,-0.20177 1.38291,-0.39338 1.67654,-1.01646 0.60704,-1.28811 0.87513,-2.95165 1.19753,-4.31993 0.0896,-0.38035 0.58974,-0.9973 0.71852,-1.27058 0.85893,-1.82262 2.0905,-3.34552 3.11358,-5.08227 0.45353,-0.76992 0.60861,-1.4529 0.95802,-2.28702 0.48335,-1.15387 1.15061,-2.18745 1.67654,-3.30348 0.91387,-1.93922 -0.26669,-2.95926 1.91605,-2.03291" id="path685" class="iuwPquLs_10"></path>
    <path style="fill:none;stroke:#000000;stroke-width:0.172691px;stroke-linecap:butt;stroke-linejoin:miter;stroke-opacity:1" d="m 132.21178,169.19459 c 0.84801,0.28183 1.63998,0.24119 2.39506,0.50823 0.36051,0.1275 0.76523,0.76235 1.19753,0.76235 0.0798,0 -0.0357,-0.17836 0,-0.25412 0.12014,-0.25494 0.2835,-0.55491 0.47901,-0.76234 0.28768,-0.30523 1.07161,-0.86977 1.19753,-1.27057 0.0505,-0.16071 -0.0714,-0.3567 0,-0.50823 0.31934,-0.67764 0.23951,0.76235 0.23951,-0.25411" id="path715" class="iuwPquLs_11"></path>
    <path style="fill:none;stroke:#000000;stroke-width:0.172691px;stroke-linecap:butt;stroke-linejoin:miter;stroke-opacity:1" d="m 137.48091,161.57118 c -0.26956,0.88279 2.87407,1.49054 2.87407,2.03291 0,0.0539 -0.61669,0.29216 -0.71851,0.50823 -0.072,0.15269 -0.71827,1.77853 -0.71852,1.7788 -0.0564,0.0599 -0.18306,-0.0599 -0.23951,0 -0.11975,0.12705 0.11975,0.63528 0,0.76233 -0.15967,0.16942 -0.68099,0.40109 -0.47901,0.50824 0.48827,0.25902 1.42518,-0.006 1.91604,0.25411 0.64651,0.34297 1.40682,0.85757 2.15556,1.01646 0.23486,0.0499 0.48616,-0.0617 0.71852,0 0.76608,0.2032 1.59501,0.98761 2.39506,1.27056 0.77536,0.27422 1.44811,0.32058 2.15555,0.50823 0.51932,0.13775 0.67822,0.62459 1.19753,0.76234 0.44125,0.11705 0.76882,0.1025 1.19753,0.25412 0.14616,0.0517 0.57236,0.45653 0.71852,0.50823 0.76279,0.26976 3.06195,0.70755 3.59259,1.27056" id="path719" class="iuwPquLs_12"></path>
    <path style="fill:none;stroke:#000000;stroke-width:0.172691px;stroke-linecap:butt;stroke-linejoin:miter;stroke-opacity:1" d="m 96.525394,161.57118 c 0.31934,-0.50822 0.63868,-1.01645 0.95802,-1.52468 0.0798,-0.33882 0.0923,-0.70408 0.23951,-1.01645 0.17851,-0.37882 0.54,-0.63765 0.71851,-1.01646 0.14722,-0.31237 0.0923,-0.70408 0.23951,-1.01645 0.17852,-0.37881 0.54,-0.63764 0.71852,-1.01646 0.22581,-0.47915 0.2532,-1.04552 0.47901,-1.52468 0.497916,-1.05658 0.835826,-1.38984 1.197526,-2.54113" id="path721" class="iuwPquLs_13"></path>
    <path style="fill:none;stroke:#000000;stroke-width:0.172691px;stroke-linecap:butt;stroke-linejoin:miter;stroke-opacity:1" d="m 102.27353,165.38289 c 1.72868,-2.15685 2.60445,-4.78023 4.0716,-7.11518" id="path723" class="iuwPquLs_14"></path>
    <path style="fill:none;stroke:#000000;stroke-width:0.172691px;stroke-linecap:butt;stroke-linejoin:miter;stroke-opacity:1" d="m 110.17723,167.66991 c 1.5412,-3.53006 3.50901,-6.86928 5.02962,-10.41866 0.13622,-0.31794 0.0923,-0.70408 0.23951,-1.01645 0.76642,-1.62633 0.71852,-0.48451 0.71852,-1.27057" id="path725" class="iuwPquLs_15"></path>
    <path style="fill:none;stroke:#000000;stroke-width:0.172691px;stroke-linecap:butt;stroke-linejoin:miter;stroke-opacity:1" d="m 117.36241,170.97339 c 0.39917,-0.67764 0.79835,-1.35527 1.19752,-2.03291 0.39919,-0.50822 0.85166,-0.97422 1.19753,-1.52468 1.48797,-2.36807 0.26756,-1.06109 1.19754,-2.54114 0.37835,-0.60214 1.19753,-1.24098 1.19753,-2.03291" id="path727" class="iuwPquLs_16"></path>
    <path style="fill:none;stroke:#000000;stroke-width:0.166488px;stroke-linecap:butt;stroke-linejoin:miter;stroke-opacity:1" d="m 32.500002,98.248108 c 6.549047,0.39342 8.614051,-3.36129 11.51086,-7.3518 0.04486,-0.0618 0.01082,0.14471 0,0.21623 -0.07648,0.50572 -0.140681,1.01385 -0.261611,1.51361 -1.022475,4.22553 -2.027983,8.439572 -2.354493,12.757522 -0.07616,1.00711 0,2.01814 0,3.0272 0,0.2883 0,1.15322 0,0.86492 0,-3.43446 0.722563,-6.99153 1.308051,-10.379002 0.584678,-3.38278 1.862976,-10.68756 8.109924,-9.51408 5.264298,0.98888 0.613437,5.5755 -1.308052,6.91933 -2.677891,1.87285 -3.820487,1.93763 -6.801872,2.59475 -0.347409,0.0766 -0.693875,0.15795 -1.046441,0.21623 -0.08551,0.0141 -0.336387,-0.0371 -0.26161,0 2.405814,1.193092 1.423468,0.0954 4.185766,2.378532 3.033036,2.5069 4.488367,6.06692 9.417976,6.27063 2.996967,0.12386 6.161007,-0.84891 7.063487,-3.45965 0.005,-0.0143 0.67575,-3.24344 -1.04645,-3.24344 -3.415699,0 -2.5562,5.97248 -0.26161,7.35178 3.35989,2.01968 8.86945,-3.93509 10.98764,-5.40572 1.00158,-0.69538 2.08451,-1.30671 3.13933,-1.94606 0.25354,-0.15368 1.00715,-0.2487 0.78483,-0.43246 -0.30831,-0.25483 -0.90322,-0.13385 -1.30805,0 -0.94423,0.31217 -1.89701,0.70301 -2.61611,1.29737 -0.10381,0.0858 -5.15331,5.39412 -1.56966,5.62196 5.06306,0.3219 4.94158,-6.91933 5.75543,-6.91933 0.43602,0 -0.0334,0.72182 0,1.08115 0.0539,0.57938 0.13943,1.15757 0.26161,1.72983 0.55145,2.5828 2.49089,5.46485 6.27865,3.6759 1.18269,-0.55859 2.38373,-1.22552 3.13933,-2.1623 1.21315,-1.50407 1.87805,-3.27164 2.6161,-4.973272 0.9217,-2.12508 1.59156,-4.31924 2.35449,-6.48688 0.63239,-1.79673 1.22924,-3.60189 1.83127,-5.40573 0.0956,-0.28648 0.42241,-1.13072 0.26162,-0.86492 -0.24665,0.40773 -0.41148,0.85098 -0.52322,1.29738 -1.31918,5.26998 -0.94151,4.62479 -1.56967,9.94654 -0.19141,1.621662 -2.07537,8.327242 1.83127,8.865412 3.0465,0.41965 5.46334,-3.26346 6.80188,-4.97328 0.31779,-0.40594 0.37119,-0.95548 0.78483,-1.29737 0.254243,-0.21014 -0.19535,0.57282 -0.26161,0.86491 -0.19551,0.86183 -0.5714,1.71881 -0.52322,2.59476 0.0509,0.92612 0.965443,3.0272 1.831273,3.0272 3.22242,0 9.27612,-4.3124 11.24925,-6.48687 0.26161,-0.28831 -0.88042,0.31544 -1.04644,0.64869 -0.47539,0.95424 -0.95353,2.00469 -0.78483,3.0272 0.57273,3.47141 6.50429,1.84146 7.5867,-0.21622 1.60142,-3.04434 -3.47499,-4.18995 -5.75543,-3.6759 -1.3886,0.31301 0.0992,1.46208 0.78483,1.5136 2.30059,0.17287 8.16469,-1.10054 9.9412,-1.72983 1.334,-0.47254 2.46657,-1.266462 3.66254,-1.946062 0.20326,-0.1155 0.52323,-0.63632 0.52323,-0.43246 0,2.375482 -1.43306,5.499472 -2.3545,7.784252 -0.0552,0.13675 -0.0687,-0.29996 0,-0.43246 0.46088,-0.88882 0.85783,-1.82733 1.56967,-2.59475 3.05561,-3.294212 4.03013,-3.818622 7.84831,-5.621962 0.68248,-0.32234 0.12518,0.9611 0,1.29738 -0.63057,1.693852 -2.51462,4.624692 -0.52322,6.270642 0.41364,0.34189 0.99604,0.74351 1.56966,0.64869 2.47106,-0.40848 6.92614,-3.42637 8.10993,-4.75704 1.06496,-1.197112 1.36886,-2.748302 2.09288,-4.108362 0.2356,-0.44255 0.4946,-0.87757 0.78483,-1.29737 0.0612,-0.0885 0.20646,-0.3074 0.26161,-0.21623 1.62873,2.69239 1.40238,5.137522 -1.83127,6.919332 -0.94325,0.51975 -2.06386,0.78485 -3.13932,1.08115 -0.33092,0.0912 -1.2931,-0.20386 -1.04645,0 0.68941,0.56981 1.71755,0.76843 2.6161,1.08115 5.62761,1.95848 8.11984,1.29328 13.34214,-0.86492" id="path284" class="iuwPquLs_17"></path>
    <path style="fill:none;stroke:#000000;stroke-width:0.166488px;stroke-linecap:butt;stroke-linejoin:miter;stroke-opacity:1" d="m 76.973777,96.734498 c 1.30805,0 2.63483,0.18228 3.92416,0 5.361,-0.75794 10.64677,-1.84367 15.95824,-2.81098 7.497503,-1.36543 15.039023,-2.78321 22.498493,-4.32458" id="path286" class="iuwPquLs_18"></path>
    <path style="fill:none;stroke:#000000;stroke-width:0.140792px;stroke-linecap:butt;stroke-linejoin:miter;stroke-opacity:1" d="m 52.450814,17.154596 c -3.706452,3.495365 0.694071,2.566721 1.122714,1.08097 0.03361,-0.116517 -0.695304,-0.710601 -1.122714,-1.08097 z" id="path288" class="iuwPquLs_19"></path>
    <path style="fill:none;stroke:#000000;stroke-width:0.193082px;stroke-linecap:butt;stroke-linejoin:miter;stroke-opacity:1" d="m 130.11451,43.591528 c -5.45845,4.850675 4.4235,0.386777 1.99018,-0.267607 -0.64434,-0.173279 -1.32679,0.178405 -1.99018,0.267607 z" id="path290" class="iuwPquLs_20"></path>
    <path style="fill:none;stroke:#000000;stroke-width:0.193082px;stroke-linecap:butt;stroke-linejoin:miter;stroke-opacity:1" d="m 176.45724,42.521108 c 0,0.62441 -0.43173,1.399144 0,1.873233 1.24047,1.362174 5.24427,-2.860455 0,-1.873233 z" id="path292" class="iuwPquLs_21"></path>
    <path style="fill:none;stroke:#000000;stroke-width:0.166488px;stroke-linecap:butt;stroke-linejoin:miter;stroke-opacity:1" d="m 99.472277,95.869588 c -0.34882,0.43245 -1.10337,0.77975 -1.04644,1.29737 0.32013,2.910572 6.589333,-0.56309 1.04644,-1.29737 z" id="path294" class="iuwPquLs_22"></path>
    <path style="fill:none;stroke:#000000;stroke-width:0.113158px;stroke-linecap:butt;stroke-linejoin:miter;stroke-opacity:1" d="m 98.642192,75.872444 c -2.43893,-1.09499 -4.27663,-3.50409 -5.64508,-5.66618 -1.33053,-2.10218 -1.27936,-4.14785 0.33207,-5.98096 0.37754,-0.42948 2.09406,-1.69594 2.6565,-0.62957 0.15654,0.29678 -0.24717,0.62245 -0.33206,0.94436 -0.80961,3.06997 -2.07525,5.16433 -4.31682,7.5549 -0.93048,0.99233 -1.95463,1.63543 -2.65651,2.83308 -0.50933,0.8691 -0.51485,1.56124 0.33206,2.20352 3.19345,2.42184 8.64069,-4.66019 10.62603,-5.0366 0.440008,-0.0834 1.161638,0 1.660318,0" id="path308" class="iuwPquLs_23"></path>
  </g>
<style data-made-with="vivus-instant">.iuwPquLs_0{stroke-dasharray:214 216;stroke-dashoffset:215;animation:iuwPquLs_draw 3400ms ease-in-out 0ms forwards;}.iuwPquLs_1{stroke-dasharray:17 19;stroke-dashoffset:18;animation:iuwPquLs_draw 3400ms ease-in-out 0ms forwards;}.iuwPquLs_2{stroke-dasharray:35 37;stroke-dashoffset:36;animation:iuwPquLs_draw 3400ms ease-in-out 0ms forwards;}.iuwPquLs_3{stroke-dasharray:441 443;stroke-dashoffset:442;animation:iuwPquLs_draw 3400ms ease-in-out 0ms forwards;}.iuwPquLs_4{stroke-dasharray:29 31;stroke-dashoffset:30;animation:iuwPquLs_draw 3400ms ease-in-out 0ms forwards;}.iuwPquLs_5{stroke-dasharray:75 77;stroke-dashoffset:76;animation:iuwPquLs_draw 3400ms ease-in-out 0ms forwards;}.iuwPquLs_6{stroke-dasharray:72 74;stroke-dashoffset:73;animation:iuwPquLs_draw 3400ms ease-in-out 0ms forwards;}.iuwPquLs_7{stroke-dasharray:26 28;stroke-dashoffset:27;animation:iuwPquLs_draw 3400ms ease-in-out 0ms forwards;}.iuwPquLs_8{stroke-dasharray:50 52;stroke-dashoffset:51;animation:iuwPquLs_draw 3400ms ease-in-out 0ms forwards;}.iuwPquLs_9{stroke-dasharray:51 53;stroke-dashoffset:52;animation:iuwPquLs_draw 3400ms ease-in-out 0ms forwards;}.iuwPquLs_10{stroke-dasharray:24 26;stroke-dashoffset:25;animation:iuwPquLs_draw 3400ms ease-in-out 0ms forwards;}.iuwPquLs_11{stroke-dasharray:9 11;stroke-dashoffset:10;animation:iuwPquLs_draw 3400ms ease-in-out 0ms forwards;}.iuwPquLs_12{stroke-dasharray:26 28;stroke-dashoffset:27;animation:iuwPquLs_draw 3400ms ease-in-out 0ms forwards;}.iuwPquLs_13{stroke-dasharray:11 13;stroke-dashoffset:12;animation:iuwPquLs_draw 3400ms ease-in-out 0ms forwards;}.iuwPquLs_14{stroke-dasharray:9 11;stroke-dashoffset:10;animation:iuwPquLs_draw 3400ms ease-in-out 0ms forwards;}.iuwPquLs_15{stroke-dasharray:15 17;stroke-dashoffset:16;animation:iuwPquLs_draw 3400ms ease-in-out 0ms forwards;}.iuwPquLs_16{stroke-dasharray:10 12;stroke-dashoffset:11;animation:iuwPquLs_draw 3400ms ease-in-out 0ms forwards;}.iuwPquLs_17{stroke-dasharray:359 361;stroke-dashoffset:360;animation:iuwPquLs_draw 3400ms ease-in-out 0ms forwards;}.iuwPquLs_18{stroke-dasharray:44 46;stroke-dashoffset:45;animation:iuwPquLs_draw 3400ms ease-in-out 0ms forwards;}.iuwPquLs_19{stroke-dasharray:8 10;stroke-dashoffset:9;animation:iuwPquLs_draw 3400ms ease-in-out 0ms forwards;}.iuwPquLs_20{stroke-dasharray:11 13;stroke-dashoffset:12;animation:iuwPquLs_draw 3400ms ease-in-out 0ms forwards;}.iuwPquLs_21{stroke-dasharray:9 11;stroke-dashoffset:10;animation:iuwPquLs_draw 3400ms ease-in-out 0ms forwards;}.iuwPquLs_22{stroke-dasharray:9 11;stroke-dashoffset:10;animation:iuwPquLs_draw 3400ms ease-in-out 0ms forwards;}.iuwPquLs_23{stroke-dasharray:49 51;stroke-dashoffset:50;animation:iuwPquLs_draw 3400ms ease-in-out 0ms forwards;}@keyframes iuwPquLs_draw{100%{stroke-dashoffset:0;}}@keyframes iuwPquLs_fade{0%{stroke-opacity:1;}94.5945945945946%{stroke-opacity:1;}100%{stroke-opacity:0;}}</style></svg>
