<!--?xml version="1.0" encoding="UTF-8" standalone="no"?-->
<svg class="my-svg" xmlns:dc="http://purl.org/dc/elements/1.1/" xmlns:cc="http://creativecommons.org/ns#" xmlns:rdf="http://www.w3.org/1999/02/22-rdf-syntax-ns#" xmlns:svg="http://www.w3.org/2000/svg" xmlns="http://www.w3.org/2000/svg" xmlns:sodipodi="http://sodipodi.sourceforge.net/DTD/sodipodi-0.dtd" xmlns:inkscape="http://www.inkscape.org/namespaces/inkscape" width="210mm" height="297mm" viewBox="0 0 210 297" version="1.1" id="svg432" sodipodi:docname="4.svg" inkscape:version="1.0.2 (e86c8708, 2021-01-15)" style="">
  <defs id="defs426">
    <inkscape:path-effect effect="skeletal" id="path-effect440" is_visible="true" lpeversion="1" pattern="M 0,5 C 0,2.24 2.24,0 5,0 7.76,0 10,2.24 10,5 10,7.76 7.76,10 5,10 2.24,10 0,7.76 0,5 Z" copytype="single_stretched" prop_scale="1" scale_y_rel="false" spacing="0" normal_offset="0" tang_offset="0" prop_units="false" vertical_pattern="false" hide_knot="false" fuse_tolerance="0"></inkscape:path-effect>
    <inkscape:path-effect effect="bspline" id="path-effect438" is_visible="true" lpeversion="1" weight="33.333333" steps="2" helper_size="0" apply_no_weight="true" apply_with_weight="true" only_selected="false"></inkscape:path-effect>
  </defs>
  <sodipodi:namedview id="base" pagecolor="#ffffff" bordercolor="#666666" borderopacity="1.0" inkscape:pageopacity="0.0" inkscape:pageshadow="2" inkscape:zoom="0.35" inkscape:cx="400" inkscape:cy="445.71429" inkscape:document-units="mm" inkscape:current-layer="layer1" inkscape:document-rotation="0" showgrid="false" inkscape:window-width="1252" inkscape:window-height="704" inkscape:window-x="19" inkscape:window-y="23" inkscape:window-maximized="0"></sodipodi:namedview>
  <metadata id="metadata429">
    <rdf:rdf>
      <cc:work rdf:about="">
        <dc:format>image/svg+xml</dc:format>
        <dc:type rdf:resource="http://purl.org/dc/dcmitype/StillImage"></dc:type>
        <dc:title></dc:title>
      </cc:work>
    </rdf:rdf>
  </metadata>
  <g inkscape:label="Layer 1" inkscape:groupmode="layer" id="layer1">
    <path style="fill:none;stroke:#000000;stroke-width:0.124601px;stroke-linecap:butt;stroke-linejoin:miter;stroke-opacity:1" d="m 5.6732585,15.74299 c 0.8584731,-0.07489 1.725431,0.106991 2.5828435,0 2.756102,-0.343918 5.497704,-1.759515 8.204328,-2.502551 3.149182,-0.86453 2.660449,-0.644436 5.165687,-1.251275 0.185616,-0.04496 1.443287,-0.328853 0.303865,-0.208546 -1.965771,0.207558 -4.102844,0.313246 -5.925348,1.459821 -1.621343,1.020019 -7.4521122,7.705976 -5.165688,10.844382 1.843369,2.530258 5.558175,2.740063 7.900463,1.668368 1.097703,-0.502245 2.143625,-1.200645 3.190573,-1.876915 1.831846,-1.183266 1.497982,-0.804894 2.278978,-1.87691 0.202577,-0.278061 0.892002,-0.785409 0.607728,-0.834184 -2.186151,-0.375096 -5.803722,4.810481 -2.43091,5.839283 1.730315,0.527795 4.884473,-0.56218 5.317619,-3.336733 0.353893,-2.266902 -1.64035,-2.386993 -2.734777,-2.50255 -1.734626,-0.183153 -0.325101,-0.19397 -0.911592,0.208547 -0.0453,0.03109 -0.198953,-0.02582 -0.151931,0 1.438661,0.789896 2.727562,0.716511 4.254095,0.208545 0.980669,-0.326325 1.92604,-0.827428 2.886709,-1.251276 0.457402,-0.201806 0.915863,-0.400264 1.367388,-0.625637 0.106425,-0.05313 0.223787,-0.318459 0.303862,-0.208546 0.08008,0.109915 -0.122134,0.267129 -0.151931,0.417093 -0.122853,0.618316 -0.279323,1.236898 -0.303863,1.876912 -0.03266,0.851735 0.304809,3.46238 0.455794,3.545278 1.482741,0.814099 4.685273,-5.271896 5.469552,-5.630737 0.06795,-0.03109 0.0861,0.169821 0.151933,0.208547 0.294402,0.173187 0.593484,0.365721 0.91159,0.41709 0.553269,0.08935 1.117576,0.08444 1.671253,0 0.08317,-0.01268 1.766453,-0.768845 1.975115,-0.625637 0.202577,0.139032 -0.434832,0.216281 -0.607726,0.417093 -0.499905,0.580614 -2.430913,2.890525 -2.430913,4.170916 0,0.623202 0.678033,1.422024 1.063524,1.459821 1.589398,0.155832 5.965686,-2.918003 7.140802,-3.54528 0.641996,-0.342695 1.317637,-0.552162 1.975114,-0.834182 0.216182,-0.09273 0.83247,-0.378532 0.60773,-0.417093 -0.977557,-0.167728 -1.434011,-0.07998 -2.278977,0.417093 -1.038722,0.611046 -3.52068,4.16416 -1.063528,4.796553 0.497767,0.128108 1.061637,0.297586 1.519319,0 2.602093,-1.691855 3.381525,-8.986154 3.798304,-12.304204 0.10468,-0.833393 0.161157,-1.679857 0.303862,-2.502549 0.111283,-0.641546 0.317739,-1.245246 0.455795,-1.876913 0.01455,-0.066586 0.02512,-0.2689023 0,-0.2085461 -0.811355,1.9489581 -3.011201,11.7431241 -1.975113,14.1811161 0.216527,0.509506 0.54561,0.942134 0.911593,1.251275 2.17829,1.83999 5.149144,-1.61459 6.685006,-2.919641" id="path559" class="gDevgSgk_0"></path>
    <path style="fill:none;stroke:#000000;stroke-width:0.11492px;stroke-linecap:butt;stroke-linejoin:miter;stroke-opacity:1" d="m 66.064725,9.6278066 c -0.294475,3.1506744 -0.424141,6.3416894 -0.60093,9.5084554 -0.07684,1.376368 -0.300464,2.749788 -0.300464,4.12631" id="path613" class="gDevgSgk_1"></path>
    <path style="fill:none;stroke:#000000;stroke-width:0.11492px;stroke-linecap:butt;stroke-linejoin:miter;stroke-opacity:1" d="m 76.430789,10.345426 c -1.142359,-3.5832033 -7.054329,0.06682 -5.258147,1.973452 1.07757,1.143831 2.880379,0.489155 3.906056,-0.358809 0.291138,-0.240697 0.500768,-0.598016 0.751165,-0.897024 0.200302,-0.239206 0.636066,-1.053296 0.600926,-0.717619 -0.14764,1.410491 -1.010054,2.585387 -1.352091,3.946906 -0.535819,2.132872 -0.781116,4.460702 -1.201863,6.637978 -0.109412,0.566163 -0.156873,2.340188 -0.450699,2.691072" id="path615" class="gDevgSgk_2"></path>
    <path style="fill:none;stroke:#000000;stroke-width:0.149287px;stroke-linecap:butt;stroke-linejoin:miter;stroke-opacity:1" d="m 88.802984,20.664895 c 2.28128,-0.905879 2.713509,-0.863912 4.709021,-2.76238 0.949853,-0.903659 1.705284,-1.989322 2.568557,-2.974872 0.563758,-0.643609 1.168322,-1.252302 1.712372,-1.912417 0.101027,-0.122579 0.285394,-0.566642 0.214046,-0.424982 -0.592114,1.175621 -0.733519,1.270009 -0.856186,2.974873 -0.244411,3.396874 0.07898,7.057643 0.64214,10.41205 0.191939,1.14327 0.424656,1.762801 0.856184,2.762381 0.06285,0.145576 0.06269,0.475067 0.214046,0.424982 1.631556,-0.539898 5.519786,-7.89914 6.207346,-9.349597 0.58674,-1.237756 1.00962,-2.545797 1.49833,-3.824835 0.29617,-0.775156 0.55639,-1.563612 0.85618,-2.337399 0.0573,-0.147826 0.3654,-0.475066 0.21405,-0.424983 -1.66059,0.549507 -2.83158,6.262637 -3.2107,7.862163 -0.0994,0.41939 -0.15267,0.84843 -0.21405,1.274943 -0.0101,0.07012 -0.0662,0.186186 0,0.212492 2.22565,0.883787 5.81196,-1.392553 7.91972,-2.124908 0.63887,-0.221982 1.27809,-0.444389 1.92642,-0.637473 0.0683,-0.02035 0.28326,-0.01718 0.21405,0 -1.46313,0.363123 -1.30983,0.03911 -2.99665,1.062453 -0.97018,0.588576 -5.99212,4.356947 -3.85284,5.949744 0.3472,0.258507 0.86611,0.327803 1.28428,0.212492 3.27128,-0.902086 3.87807,-3.317449 5.35116,-5.949743 0.24986,-0.446491 0.55713,-0.859321 0.85618,-1.274946 0.0587,-0.08151 0.2854,-0.283321 0.21405,-0.212491 -1.44508,1.43458 -2.39621,3.351273 -1.49832,5.312271 0.1923,0.419997 0.66363,1.593647 1.49832,1.274945 1.32117,-0.504449 3.09897,-2.378204 4.06688,-3.187363 1.5371,-1.284984 2.99179,-2.214596 4.92307,-2.76238 0.0686,-0.01945 0.2854,0 0.21405,0 -0.2854,0 -0.57634,-0.05557 -0.85619,0 -1.98831,0.394771 -5.42923,2.620286 -4.06688,5.099779 0.21877,0.398157 0.64852,0.675528 1.07023,0.849964 4.03464,1.668881 5.76753,-3.987843 8.34781,-5.524763 0.58042,-0.345716 1.28036,-0.437043 1.92642,-0.637471 0.49579,-0.153807 0.99441,-0.299918 1.49832,-0.424982 0.0692,-0.01718 0.28401,-0.01389 0.21405,0 -0.63735,0.126543 -2.82461,0.412015 -3.21069,0.637473 -1.44754,0.845301 -3.01837,2.953316 -1.49832,4.462307 2.34187,2.32486 6.76736,-0.423804 8.7759,-1.699927 0.76958,-0.48896 1.42199,-1.139518 2.14046,-1.699926 0.28051,-0.218803 1.21293,-0.637474 0.85619,-0.637474 -1.65432,0 -5.09371,5.28404 -2.35452,5.737254 0.56303,0.09316 1.1804,0.205377 1.71237,0 0.76562,-0.295574 4.03449,-2.999858 4.49498,-3.399854 0.10346,-0.08987 1.28428,-1.279697 1.28428,-1.274944 0,1.283393 -0.26516,1.630058 -0.42809,2.76238 -0.0202,0.140238 -0.0234,0.564714 0,0.424982 0.0946,-0.563282 -0.024,-1.18006 0.21404,-1.699927 0.46597,-1.017681 2.75787,-4.849703 4.70902,-4.462307 0.65412,0.129874 -1.81611,5.479693 0,5.737252 2.1328,0.302471 5.27094,-3.052166 6.63544,-4.037325 0.54436,-0.393024 1.10122,-0.782436 1.71237,-1.062456 0.40972,-0.187724 1.73552,-0.424981 1.28428,-0.424981 -2.49056,0 -7.58523,3.427378 -4.06688,4.674799 2.57179,0.911823 3.76989,-1.88093 4.70902,-3.612344 0.15127,-0.2789 0.42809,-1.166727 0.42809,-0.849964 0,1.052968 -0.93867,1.930036 -1.07023,2.974872 -0.13661,1.084934 0.41216,3.475295 2.14046,2.974871 5.36191,-1.552522 7.15757,-6.873341 8.98995,-11.474504 0.4729,-1.187478 0.93092,-2.384565 1.28428,-3.612345 0.098,-0.3405253 0.23217,-1.3313463 0,-1.0624543 -0.46433,0.537784 -0.98904,1.0551133 -1.28428,1.6999283 -1.1252,2.457453 -2.8369,10.17737 -0.85619,12.536958 0.90309,1.075824 6.4214,-2.930757 6.4214,-4.249817 0,-0.15838 -0.35246,0.07304 -0.42809,0.212491 -0.43975,0.810733 -0.91776,1.641625 -1.07024,2.549891 -0.37126,2.211373 3.61391,2.141292 4.70902,1.912417 2.19551,-0.458854 2.00558,-0.958615 2.99665,-2.762382 0.0764,-0.139041 0.32687,-0.536973 0.21405,-0.42498 -0.98591,0.978735 -2.15213,4.421838 0.64214,3.399852 3.79624,-1.388453 2.46166,-5.876707 0.21404,-5.737251 -3.21323,0.199367 -2.13676,3.186672 1.28428,2.549888 1.48596,-0.276591 2.86735,-0.955146 4.28093,-1.487435 1.18744,-0.447137 2.35451,-1.428193 2.35451,-0.424981 0,1.071856 -0.23495,2.132795 -0.42809,3.187362 -0.0929,0.507335 -0.30211,0.98718 -0.4281,1.487436 -0.0173,0.06872 -0.0303,0.27658 0,0.212491 0.59843,-1.262397 0.91448,-2.676293 1.71237,-3.824835 0.65942,-0.949192 1.65175,-1.629505 2.56856,-2.3374 3.79681,-2.93161 -1.03005,5.428873 1.07024,6.587217 0.43659,0.240788 1.05161,0.221734 1.49832,0 2.09585,-1.040311 2.56855,-2.797813 2.56855,-4.88729" id="path627" class="gDevgSgk_3"></path>
    <path style="fill:none;stroke:#000000;stroke-width:0.149287px;stroke-linecap:butt;stroke-linejoin:miter;stroke-opacity:1" d="m 159.0102,14.789574 c 7.15383,-0.09983 14.26139,-1.699927 21.40464,-1.699927" id="path629" class="gDevgSgk_4"></path>
    <path style="fill:none;stroke:#000000;stroke-width:0.135064px;stroke-linecap:butt;stroke-linejoin:miter;stroke-opacity:1" d="m 51.398289,64.601747 c 5.191963,0.326598 6.829061,-2.790384 9.125597,-6.103116 0.03556,-0.0513 0.0086,0.120131 0,0.179503 -0.06063,0.419825 -0.111529,0.841651 -0.2074,1.256528 -0.810599,3.507835 -1.607748,7.006133 -1.866599,10.590688 -0.06038,0.83606 0,1.67537 0,2.51304 0,0.23933 0,0.95735 0,0.71802 0,-2.85113 0.572835,-5.804041 1.036999,-8.61616 0.463522,-2.808224 1.476933,-8.872306 6.429398,-7.898138 4.173439,0.820921 0.486322,4.628516 -1.036999,5.7441 -2.122983,1.554751 -3.028812,1.608528 -5.392399,2.154038 -0.275419,0.06359 -0.550091,0.131123 -0.829599,0.179504 -0.06779,0.0117 -0.266681,-0.0308 -0.2074,0 1.907285,0.990449 1.1285,0.0792 3.318399,1.974545 2.404535,2.081111 3.558294,5.036471 7.466397,5.205581 2.375941,0.10282 4.884333,-0.70473 5.599803,-2.87204 0.004,-0.0119 0.535722,-2.692549 -0.829607,-2.692549 -2.707903,0 -2.026508,4.958069 -0.207399,6.103099 2.663659,1.67664 7.031536,-3.26672 8.710798,-4.48757 0.794035,-0.577274 1.652562,-1.084771 2.488803,-1.615529 0.201002,-0.127578 0.79845,-0.206459 0.622199,-0.359008 -0.244422,-0.211548 -0.716056,-0.111116 -1.036998,0 -0.748568,0.259149 -1.503914,0.583606 -2.074004,1.077015 -0.0823,0.07123 -4.085449,4.477942 -1.244397,4.667082 4.013901,0.26723 3.917593,-5.744097 4.562799,-5.744097 0.345668,0 -0.02648,0.599221 0,0.89752 0.04273,0.480974 0.110537,0.960957 0.207399,1.436027 0.43718,2.14411 1.974732,4.53666 4.977598,3.05155 0.937615,-0.46371 1.889778,-1.01736 2.488803,-1.79504 0.961763,-1.2486 1.488884,-2.715956 2.073996,-4.12857 0.730707,-1.764141 1.26176,-3.585629 1.866597,-5.385101 0.501347,-1.49156 0.974518,-2.990118 1.451797,-4.487581 0.07579,-0.237822 0.334879,-0.93867 0.207407,-0.718016 -0.195539,0.338479 -0.326214,0.706444 -0.414799,1.077024 -1.045822,4.374888 -0.746412,3.839282 -1.244405,8.257146 -0.151747,1.346227 -1.645316,6.912878 1.451797,7.359648 2.41521,0.34837 4.33123,-2.70917 5.3924,-4.128584 0.25194,-0.336992 0.29428,-0.793194 0.6222,-1.077015 0.20156,-0.174448 -0.15487,0.475528 -0.2074,0.718007 -0.15499,0.715452 -0.45299,1.426872 -0.4148,2.154052 0.0404,0.76882 0.76539,2.51303 1.4518,2.51303 2.55468,0 7.35394,-3.57995 8.9182,-5.385089 0.2074,-0.239341 -0.69798,0.261863 -0.8296,0.538512 -0.37688,0.792167 -0.75594,1.664197 -0.6222,2.513037 0.45405,2.8818 5.15649,1.52869 6.0146,-0.17949 1.26958,-2.527272 -2.75491,-3.478303 -4.5628,-3.051563 -1.10085,0.259846 0.0786,1.21375 0.6222,1.256519 1.82387,0.143509 6.47282,-0.913616 7.8812,-1.436023 1.05757,-0.39228 1.95545,-1.051357 2.9036,-1.615528 0.16114,-0.09588 0.4148,-0.528243 0.4148,-0.359008 0,1.972012 -1.1361,4.565403 -1.8666,6.462113 -0.0438,0.11353 -0.0545,-0.24901 0,-0.359 0.36538,-0.73786 0.68007,-1.51697 1.2444,-2.15404 2.42244,-2.734701 3.19502,-3.170041 6.222,-4.667089 0.54106,-0.267591 0.0992,0.79786 0,1.077024 -0.4999,1.406155 -1.99354,3.839195 -0.4148,5.205585 0.32793,0.28383 0.78964,0.61723 1.2444,0.53852 1.95901,-0.3391 5.49091,-2.844414 6.4294,-3.949073 0.84428,-0.993786 1.08521,-2.28151 1.6592,-3.410568 0.18678,-0.367384 0.39211,-0.728517 0.6222,-1.077015 0.0485,-0.07347 0.16367,-0.255189 0.2074,-0.179504 1.29122,2.235095 1.11178,4.264928 -1.4518,5.744102 -0.74779,0.431468 -1.63619,0.651548 -2.4888,0.897518 -0.26234,0.0757 -1.02514,-0.16923 -0.8296,0 0.54655,0.47303 1.36164,0.63792 2.07399,0.89752 4.46147,1.62584 6.43726,1.07362 10.57741,-0.71801" id="path284" class="gDevgSgk_5"></path>
    <path style="fill:none;stroke:#000000;stroke-width:0.135064px;stroke-linecap:butt;stroke-linejoin:miter;stroke-opacity:1" d="m 86.656278,63.345219 c 1.036998,0 2.088845,0.151321 3.111002,0 4.250102,-0.629205 8.440563,-1.530527 12.6514,-2.333542 5.94388,-1.133515 11.92266,-2.310489 17.83639,-3.590062" id="path286" class="gDevgSgk_6"></path>
    <path style="fill:none;stroke:#000000;stroke-width:0.11492px;stroke-linecap:butt;stroke-linejoin:miter;stroke-opacity:1" d="m 43.229337,15.72757 c -2.975817,2.900567 0.557252,2.129948 0.901399,0.897024 0.02698,-0.09669 -0.558243,-0.58968 -0.901399,-0.897024 z" id="path288" class="gDevgSgk_7"></path>
    <path style="fill:none;stroke:#000000;stroke-width:0.149287px;stroke-linecap:butt;stroke-linejoin:miter;stroke-opacity:1" d="m 140.38817,15.427048 c -4.10945,3.851666 3.33027,0.307119 1.49833,-0.212493 -0.4851,-0.137592 -0.99889,0.141662 -1.49833,0.212493 z" id="path290" class="gDevgSgk_8"></path>
    <path style="fill:none;stroke:#000000;stroke-width:0.149287px;stroke-linecap:butt;stroke-linejoin:miter;stroke-opacity:1" d="m 175.27773,14.577083 c 0,0.495812 -0.32503,1.110987 0,1.487436 0.9339,1.081631 3.9482,-2.271337 0,-1.487436 z" id="path292" class="gDevgSgk_9"></path>
    <path style="fill:none;stroke:#000000;stroke-width:0.135064px;stroke-linecap:butt;stroke-linejoin:miter;stroke-opacity:1" d="m 104.49267,62.627212 c -0.27653,0.359 -0.87473,0.647312 -0.82959,1.077015 0.25379,2.416219 5.2239,-0.46745 0.82959,-1.077015 z" id="path294" class="gDevgSgk_10"></path>
    <path style="fill:none;stroke:#000000;stroke-width:0.113158px;stroke-linecap:butt;stroke-linejoin:miter;stroke-opacity:1" d="m 96.374335,46.390306 c -2.43893,-1.09499 -4.27663,-3.50409 -5.64508,-5.66618 -1.33053,-2.10218 -1.27936,-4.14785 0.33207,-5.98096 0.37754,-0.42948 2.09406,-1.69594 2.6565,-0.62957 0.15654,0.29678 -0.24717,0.62245 -0.33206,0.94436 -0.80961,3.06997 -2.07525,5.16433 -4.31682,7.5549 -0.93048,0.99233 -1.95463,1.63543 -2.65651,2.83308 -0.50933,0.8691 -0.51485,1.56124 0.33206,2.20352 3.19345,2.42184 8.64069,-4.66019 10.62603,-5.0366 0.440008,-0.0834 1.161638,0 1.660318,0" id="path308" class="gDevgSgk_11"></path>
  </g>
<style data-made-with="vivus-instant">.gDevgSgk_0{stroke-dasharray:174 176;stroke-dashoffset:175;animation:gDevgSgk_draw_0 7000ms ease-in 0ms infinite,gDevgSgk_fade 7000ms linear 0ms infinite;}.gDevgSgk_1{stroke-dasharray:14 16;stroke-dashoffset:15;animation:gDevgSgk_draw_1 7000ms ease-in 0ms infinite,gDevgSgk_fade 7000ms linear 0ms infinite;}.gDevgSgk_2{stroke-dasharray:29 31;stroke-dashoffset:30;animation:gDevgSgk_draw_2 7000ms ease-in 0ms infinite,gDevgSgk_fade 7000ms linear 0ms infinite;}.gDevgSgk_3{stroke-dasharray:342 344;stroke-dashoffset:343;animation:gDevgSgk_draw_3 7000ms ease-in 0ms infinite,gDevgSgk_fade 7000ms linear 0ms infinite;}.gDevgSgk_4{stroke-dasharray:22 24;stroke-dashoffset:23;animation:gDevgSgk_draw_4 7000ms ease-in 0ms infinite,gDevgSgk_fade 7000ms linear 0ms infinite;}.gDevgSgk_5{stroke-dasharray:291 293;stroke-dashoffset:292;animation:gDevgSgk_draw_5 7000ms ease-in 0ms infinite,gDevgSgk_fade 7000ms linear 0ms infinite;}.gDevgSgk_6{stroke-dasharray:35 37;stroke-dashoffset:36;animation:gDevgSgk_draw_6 7000ms ease-in 0ms infinite,gDevgSgk_fade 7000ms linear 0ms infinite;}.gDevgSgk_7{stroke-dasharray:7 9;stroke-dashoffset:8;animation:gDevgSgk_draw_7 7000ms ease-in 0ms infinite,gDevgSgk_fade 7000ms linear 0ms infinite;}.gDevgSgk_8{stroke-dasharray:8 10;stroke-dashoffset:9;animation:gDevgSgk_draw_8 7000ms ease-in 0ms infinite,gDevgSgk_fade 7000ms linear 0ms infinite;}.gDevgSgk_9{stroke-dasharray:7 9;stroke-dashoffset:8;animation:gDevgSgk_draw_9 7000ms ease-in 0ms infinite,gDevgSgk_fade 7000ms linear 0ms infinite;}.gDevgSgk_10{stroke-dasharray:8 10;stroke-dashoffset:9;animation:gDevgSgk_draw_10 7000ms ease-in 0ms infinite,gDevgSgk_fade 7000ms linear 0ms infinite;}.gDevgSgk_11{stroke-dasharray:49 51;stroke-dashoffset:50;animation:gDevgSgk_draw_11 7000ms ease-in 0ms infinite,gDevgSgk_fade 7000ms linear 0ms infinite;}@keyframes gDevgSgk_draw{100%{stroke-dashoffset:0;}}@keyframes gDevgSgk_fade{0%{stroke-opacity:1;}97.14285714285714%{stroke-opacity:1;}100%{stroke-opacity:0;}}@keyframes gDevgSgk_draw_0{11.428571428571429%{stroke-dashoffset: 175}40%{ stroke-dashoffset: 0;}100%{ stroke-dashoffset: 0;}}@keyframes gDevgSgk_draw_1{12.727272727272727%{stroke-dashoffset: 15}41.2987012987013%{ stroke-dashoffset: 0;}100%{ stroke-dashoffset: 0;}}@keyframes gDevgSgk_draw_2{14.025974025974024%{stroke-dashoffset: 30}42.5974025974026%{ stroke-dashoffset: 0;}100%{ stroke-dashoffset: 0;}}@keyframes gDevgSgk_draw_3{15.324675324675324%{stroke-dashoffset: 343}43.8961038961039%{ stroke-dashoffset: 0;}100%{ stroke-dashoffset: 0;}}@keyframes gDevgSgk_draw_4{16.623376623376622%{stroke-dashoffset: 23}45.19480519480519%{ stroke-dashoffset: 0;}100%{ stroke-dashoffset: 0;}}@keyframes gDevgSgk_draw_5{17.92207792207792%{stroke-dashoffset: 292}46.493506493506494%{ stroke-dashoffset: 0;}100%{ stroke-dashoffset: 0;}}@keyframes gDevgSgk_draw_6{19.22077922077922%{stroke-dashoffset: 36}47.79220779220779%{ stroke-dashoffset: 0;}100%{ stroke-dashoffset: 0;}}@keyframes gDevgSgk_draw_7{20.51948051948052%{stroke-dashoffset: 8}49.09090909090909%{ stroke-dashoffset: 0;}100%{ stroke-dashoffset: 0;}}@keyframes gDevgSgk_draw_8{21.818181818181817%{stroke-dashoffset: 9}50.38961038961038%{ stroke-dashoffset: 0;}100%{ stroke-dashoffset: 0;}}@keyframes gDevgSgk_draw_9{23.116883116883113%{stroke-dashoffset: 8}51.688311688311686%{ stroke-dashoffset: 0;}100%{ stroke-dashoffset: 0;}}@keyframes gDevgSgk_draw_10{24.415584415584416%{stroke-dashoffset: 9}52.98701298701298%{ stroke-dashoffset: 0;}100%{ stroke-dashoffset: 0;}}@keyframes gDevgSgk_draw_11{25.71428571428571%{stroke-dashoffset: 50}54.285714285714285%{ stroke-dashoffset: 0;}100%{ stroke-dashoffset: 0;}}</style></svg>
