<!--?xml version="1.0" encoding="UTF-8" standalone="no"?-->
<svg class= "my-svg" xmlns:dc="http://purl.org/dc/elements/1.1/" xmlns:cc="http://creativecommons.org/ns#" xmlns:rdf="http://www.w3.org/1999/02/22-rdf-syntax-ns#" xmlns:svg="http://www.w3.org/2000/svg" xmlns="http://www.w3.org/2000/svg" xmlns:sodipodi="http://sodipodi.sourceforge.net/DTD/sodipodi-0.dtd" xmlns:inkscape="http://www.inkscape.org/namespaces/inkscape" width="193.88824mm" height="60.581963mm" viewBox="0 0 193.88824 60.581962" version="1.1" id="svg8" inkscape:version="1.0.2 (e86c8708, 2021-01-15)" sodipodi:docname="6.svg" style="">
  <defs id="defs2"></defs>
  <sodipodi:namedview id="base" pagecolor="#ffffff" bordercolor="#666666" borderopacity="1.0" inkscape:pageopacity="0.0" inkscape:pageshadow="2" inkscape:zoom="0.98994949" inkscape:cx="394.35867" inkscape:cy="114.55757" inkscape:document-units="mm" inkscape:current-layer="layer1" inkscape:document-rotation="0" showgrid="false" inkscape:window-width="1252" inkscape:window-height="702" inkscape:window-x="0" inkscape:window-y="23" inkscape:window-maximized="0"></sodipodi:namedview>
  <metadata id="metadata5">
    <rdf:rdf>
      <cc:work rdf:about="">
        <dc:format>image/svg+xml</dc:format>
        <dc:type rdf:resource="http://purl.org/dc/dcmitype/StillImage"></dc:type>
        <dc:title></dc:title>
      </cc:work>
    </rdf:rdf>
  </metadata>
  <g inkscape:label="Layer 1" inkscape:groupmode="layer" id="layer1" transform="translate(-6.6053372,-9.307902)">
    <!-- covid 19 -->
    <path style="fill:none;stroke:#FF4500;stroke-width:2px;stroke-linecap:butt;stroke-linejoin:miter;stroke-opacity:1" d="m 63.441137,23.0737 c 0.433931,-0.75957 1.63833,-2.992629 2.279671,-3.657892 2.078108,-2.155618 6.718577,-3.177137 9.403643,-2.992822 0.781925,0.05368 1.526531,0.413962 2.279671,0.665072 0.577631,0.192592 1.147258,0.418917 1.709753,0.665072 0.198871,0.08703 0.720105,0.507798 0.569918,0.332535 -0.991184,-1.156672 -2.373577,-1.712833 -3.704465,-1.995215 -0.636458,-0.135039 -2.745183,-0.635192 -3.419507,-0.332535 -2.094489,0.940072 -4.559222,4.37015 -5.414219,6.650714 -1.165011,3.107478 -0.29312,8.73056 2.279671,10.641143 3.126117,2.32149 6.684945,-0.497847 8.548767,-3.325357 1.336049,-2.026851 1.553733,-2.325861 2.279671,-4.6555 0.133839,-0.42951 0.208151,-0.881991 0.284959,-1.330144 0.01863,-0.108693 0.04248,-0.431677 0,-0.332534 -0.626037,1.461118 -1.414495,4.715601 -1.139836,6.318178 0.73455,4.285951 4.04569,3.460912 5.129259,-0.332536 0.536447,-1.878036 0.297511,-6.565545 -0.284958,-8.313393 -0.324788,-0.974608 -1.646034,-2.402107 -2.279672,-1.662678 -1.26692,1.478447 1.312359,3.231289 2.279672,3.325357 0.763159,0.07421 1.557525,-0.03511 2.279669,-0.332536 0.922192,-0.379822 1.813355,-0.932085 2.56463,-1.662678 0.42549,-0.413773 0.607184,-1.08458 0.854878,-1.662678 0.04248,-0.09915 0,-0.44338 0,-0.332536 0,3.785607 0.650352,7.646315 2.27967,10.973678 0.301756,0.61624 0.750471,1.11743 1.139836,1.662678 0.086,0.120426 0.210444,0.462968 0.28496,0.332537 1.748989,-3.0615 1.410751,-7.484439 1.709753,-10.973679 0.0762,-0.889227 -0.09499,-1.884369 0.284958,-2.660286 0.05488,-0.112071 1.840124,0.997608 3.419503,0.997608 0.314339,0 3.991588,-0.51784 4.559348,-0.665071 0.20735,-0.05377 0.35752,-0.332537 0.56992,-0.332537 0.42479,0 -0.79417,0.376944 -1.13984,0.665072 -0.41491,0.345856 -1.75501,2.0449 -1.99471,2.660286 -1.060439,2.722475 -1.918223,9.023097 0.85487,10.641142 0.3503,0.204388 0.7833,0.521655 1.13984,0.332536 2.2101,-1.172314 4.09476,-5.046022 4.55934,-7.648321 0.10841,-0.607214 0.0772,-8.372467 0.28495,-8.978465 0.37922,-1.106281 2.20773,-1.971698 3.13455,-1.662679 0.32931,0.109795 0.5989,0.399554 0.85489,0.665072 1.48456,1.539943 2.41159,2.560158 2.84958,4.988036 0.58267,3.229787 -0.33754,8.212868 -2.27968,10.641142 -1.2125,1.516009 -3.27328,1.592042 -4.84429,1.330144 -0.54829,-0.09141 -1.96211,-0.840849 -1.42478,-0.997609 2.26155,-0.659788 5.03362,1.507347 7.12395,1.995215 0.83828,0.195647 1.70976,0 2.56463,0" id="path52" class="ZBYlXmdK_0"></path>
    <path style="fill:none;stroke:#FF4500;stroke-width:2px;stroke-linecap:butt;stroke-linejoin:miter;stroke-opacity:1" d="m 129.55159,14.427772 c 0.16908,5.110834 -0.28495,10.189821 -0.28495,15.296643" id="path58" class="ZBYlXmdK_1"></path>
    <path style="fill:none;stroke:#FF4500;stroke-width:2px;stroke-linecap:butt;stroke-linejoin:miter;stroke-opacity:1" d="m 141.23491,15.757915 c 0.30784,-4.848827 -7.55288,-1.947183 -6.83902,1.662679 0.5302,2.68115 3.4082,2.314407 4.8443,1.662679 0.81619,-0.3704 1.49251,-1.158007 1.99472,-1.995215 0.21789,-0.363231 0.0921,-1.760285 0,-1.330143 -1.23358,5.758117 -1.0629,6.49859 -1.70976,11.971286 -0.0354,0.298989 -0.43142,5.994937 -0.85488,6.983249" id="path60" class="ZBYlXmdK_2"></path>
    <!-- vaccination -->
    <path style="fill:none;stroke:#87CEFA;stroke-width:1.5px;stroke-linecap:butt;stroke-linejoin:miter;stroke-opacity:1" d="m 15.224741,58.172624 c 0.567847,-0.379466 1.210105,-0.676757 1.703541,-1.138398 4.005243,-3.747135 2.225434,-6.796197 3.893801,0.227679 0.324483,1.366081 0.556411,2.754327 0.973452,4.098238 0.315024,1.015154 0.840767,1.963031 1.216816,2.959839 0.111315,0.295076 -0.09111,0.910719 0.243363,0.910719 1.004074,0 4.253632,-9.632022 4.623889,-10.473274 0.429097,-0.974927 1.1732,-1.801855 1.703541,-2.732157 0.07712,-0.135266 0.424326,-2.86936 -1.216816,2.504478 -0.3409,1.116274 -0.508105,2.27298 -0.730088,3.415197 -0.131402,0.676158 -0.488684,2.106192 0.243363,2.049119 0.843998,-0.0658 1.611985,-0.490866 2.43363,-0.683039 0.802569,-0.187714 1.619689,-0.316909 2.433622,-0.45536 0.07976,-0.01358 0.322908,-0.01488 0.243363,0 -0.483858,0.09054 -1.045104,-0.02195 -1.460179,0.22768 -1.497474,0.900628 -2.614338,2.556324 -3.163711,4.098237 -0.12826,0.359993 -0.384789,1.018402 0,1.1384 1.16486,0.363263 2.540011,-2.130813 3.407075,-3.415198 0.349241,-0.517331 0.680964,-1.046485 0.973452,-1.593759 0.03623,-0.06788 0.03623,-0.295562 0,-0.22768 -0.254016,0.475302 -1.112266,5.379658 0.486725,4.781277 0.694406,-0.259863 1.138362,-0.907824 1.703542,-1.366079 0.651645,-0.52837 1.221523,-1.157499 1.946895,-1.593759 0.431574,-0.259559 0.959339,-0.351236 1.460179,-0.45536 0.237562,-0.04939 0.902174,0.160994 0.730089,0 -1.684184,-1.575652 -4.562081,2.448101 -2.43363,3.642878 1.636779,0.918781 3.817467,-2.508504 4.623888,-3.187518 0.714528,-0.60163 1.315902,-0.747116 2.190267,-0.91072 0.07958,-0.01488 0.324485,0 0.243364,0 -1.712529,0 -2.676994,1.735393 -2.676994,3.187518 0,3.205301 5.868813,-1.672654 6.32743,-2.959838 0.03624,-0.101822 -0.198172,0.129029 -0.243363,0.22768 -0.210437,0.459389 -1.028841,2.408689 -0.243363,2.959839 0.90232,0.633127 3.395401,-1.810516 3.650446,-2.04912 0.206813,-0.193491 0.355916,-0.927788 0.486717,-0.68304 0.02022,0.03785 -0.474871,2.460117 -0.486717,2.504479 -0.01967,0.07363 -0.04171,-0.162601 0,-0.227679 0.04571,-0.07127 1.761061,-3.274448 2.920348,-2.732159 0.09129,0.0427 -0.834001,2.956145 0.243362,2.732159 0.756359,-0.157249 2.828446,-1.704628 3.407074,-2.049119 0.432849,-0.257696 1.973229,-0.45536 1.460178,-0.45536 -0.243362,0 -0.535395,-0.136608 -0.730088,0 -0.247707,0.173809 -1.842538,1.854281 -1.703533,2.504479 0.18568,0.86857 3.020326,-1.888513 2.676984,-2.049119 -0.503735,-0.23564 -0.382759,2.504479 0.243364,2.504479 3.093634,0 4.298748,-6.26683 4.867252,-7.968795 0.359704,-1.076878 0.85711,-2.110641 1.216815,-3.187519 0.04835,-0.144878 0.11472,-0.562689 0,-0.45536 -1.85473,1.735203 -2.722312,7.884001 -1.460179,10.245595 0.130801,0.244748 0.19424,0.683039 0.486726,0.683039 1.812207,0 3.674676,-2.971176 5.110616,-3.642878 0.26161,-0.122374 -0.346665,0.442814 -0.486726,0.683039 -0.542489,0.930472 -2.065386,3.821996 0,3.415198 1.282438,-0.252588 2.509524,-0.762771 3.650436,-1.366079 0.750713,-0.39697 1.337144,-1.023296 1.946904,-1.593759 0.12826,-0.119997 0.405606,-0.531254 0.243364,-0.45536 -1.06815,0.499658 -2.647675,4.628216 -0.486726,3.415198 1.485263,-0.83373 1.903206,-1.970339 1.216815,-3.415198 -0.356254,-0.749907 -2.449565,0.350514 -1.216815,0.45536 1.761652,0.14983 3.453593,-0.552971 5.110614,-0.910719 0.15809,-0.03414 0.521919,-0.148172 0.486726,0 -0.173314,0.729662 -0.663418,1.36023 -0.973452,2.049118 -0.339044,0.753341 -0.582717,1.545698 -0.973452,2.276799 -0.10261,0.191997 -0.6183,0.631215 -0.486727,0.45536 0.697802,-0.932613 1.406475,-1.861384 2.190268,-2.732159 0.517275,-0.574681 1.103325,-1.094619 1.703542,-1.593759 0.135572,-0.112744 0.486726,-0.397382 0.486726,-0.227679 0,0.967162 -2.514387,3.88815 -0.486726,4.325917 0.794374,0.171505 1.642707,-0.04269 2.433621,-0.22768 3.433762,-0.803122 5.556439,-1.781223 6.084067,-5.236637" id="path102" class="ZBYlXmdK_3"></path>
    <path style="fill:none;stroke:#87CEFA;stroke-width:1.5px;stroke-linecap:butt;stroke-linejoin:miter;stroke-opacity:1" d="m 54.162767,56.578866 c 5.504428,-1.778102 11.806317,0.112832 17.278749,-1.593759" id="path104" class="ZBYlXmdK_4"></path>
    <!-- & -->
    <path style="fill:none;stroke:#1E90FF;stroke-width:1.5px;stroke-linecap:butt;stroke-linejoin:miter;stroke-opacity:1" d="m 110.38689,51.241924 c -5.05369,-0.374173 -8.91704,-3.767706 -6.8251,-7.527782 0.78285,-1.407101 2.40681,-3.121765 2.92504,-2.867728 0.39421,0.19324 0.64893,0.5531 0.73126,0.896165 0.73917,3.079905 -2.60347,5.252399 -5.11882,7.34855 -0.64734,0.539447 -1.44665,0.996201 -1.95003,1.613097 -0.45371,0.556017 -0.498713,1.792329 0.97501,1.792329 4.05488,0 4.84301,-4.122358 10.72516,-4.122358" id="path112" class="ZBYlXmdK_5"></path>
    <!-- reactions -->
    <path style="fill:none;stroke:#87CEFA;stroke-width:1.5px;stroke-linecap:butt;stroke-linejoin:miter;stroke-opacity:1" d="m 124.73292,54.120034 c 2.22042,-1.017569 1.17891,-0.330385 3.35883,-2.873306 0.16627,-0.193955 0.44785,-0.862371 0.44785,-0.615708 0,2.688166 -1.54055,5.188196 -2.23922,7.798972 -0.47079,1.759158 -0.7441,3.557836 -1.11961,5.336137 -0.0723,0.342479 -0.0537,1.338189 -0.22393,1.026182 -0.43512,-0.797609 0.84125,-4.751037 0.89569,-4.925667 1.33978,-4.297902 1.73322,-5.475507 4.03061,-9.235624 0.23352,-0.382203 0.43614,-0.905839 0.89569,-1.026181 0.47641,-0.12476 1.31789,1.130676 0.44783,3.283778 -0.57851,1.431669 -2.07412,3.224804 -3.58275,4.104722 -0.25964,0.151437 -0.62043,0.07909 -0.89569,0.205235 -0.13353,0.0612 0.33317,-0.08759 0.44784,0 0.36716,0.280435 0.68196,0.634377 0.89569,1.026182 0.32879,0.602694 0.74941,2.762858 1.79139,3.283778 2.37374,1.186718 5.69513,-1.992099 4.25453,-4.104722 -1.36802,-2.006165 -3.05112,4.386761 -1.11962,6.157082 1.81214,1.660909 4.34585,-2.441821 5.15022,-3.078542 1.14385,-0.905418 2.738,-1.278084 3.80669,-2.257596 0.32105,-0.294252 -1.00605,-0.07314 -1.34354,0.205236 -0.84538,0.697356 -3.46647,5.01476 -2.23922,5.336137 1.42457,0.373057 2.32024,-1.833215 2.91099,-3.07854 0.58095,-1.224665 0.77043,-2.668071 0.67177,-2.668071 -0.26069,0 -0.46351,5.467703 1.11962,3.694251 1.88794,-2.114923 0.74199,-2.185641 3.13492,-4.104722 0.50243,-0.402937 1.18361,-0.567739 1.79138,-0.820944 0.21488,-0.08952 0.9078,-0.205235 0.67177,-0.205235 -2.21836,0 -4.71674,4.595628 -2.911,5.541373 3.27058,1.712939 5.95242,-5.792754 6.49376,-6.978026 0.72285,-1.582693 1.54399,-3.127384 2.23923,-4.720431 0.49974,-1.145106 0.95688,-2.307713 1.34353,-3.489014 0.0644,-0.196579 0.18632,-0.729553 0,-0.615709 -2.03949,1.2462 -4.50835,12.669819 -3.13491,15.187473 1.68005,3.07971 6.79403,-2.656421 7.83729,-3.899487 0.20353,-0.242501 0.29856,-0.547297 0.44785,-0.820944 0.0747,-0.136825 -0.16688,0.266708 -0.22393,0.410471 -0.24198,0.609938 -0.49155,1.219482 -0.67177,1.847127 -0.0819,0.28518 -0.71483,2.63122 -0.44783,3.283777 0.77431,1.892542 4.12014,-2.298607 4.47846,-2.66807 0.0701,-0.07232 0.26312,-0.295065 0.22392,-0.205236 -0.18596,0.4261 -0.56687,0.782682 -0.67178,1.231417 -0.18304,0.782968 0.0556,2.477578 0.89569,2.257596 2.00255,-0.524407 3.15407,-2.321676 3.35884,-4.104722 0.0461,-0.40164 -0.71184,-1.785189 -1.56746,-1.436651 -0.77144,0.314252 -2.16257,2.32615 -0.22392,2.462832 1.57573,0.111096 3.83627,-1.297631 4.9263,-1.847126 0.52729,-0.265803 1.02922,-0.574279 1.56746,-0.820944 0.0667,-0.03059 0.23318,-0.06789 0.22393,0 -0.22904,1.679352 -0.87362,3.288971 -1.34354,4.925667 -0.0601,0.209215 -0.28117,0.825586 -0.22392,0.615709 0.57218,-2.097717 0.78338,-2.472273 2.91099,-4.515194 0.6291,-0.604056 1.50237,-0.945485 2.23923,-1.436653 0.0853,-0.05692 0.23558,-0.301393 0.22393,-0.205235 -0.2376,1.959847 -2.85273,6.665214 0.89569,7.388498 3.16988,0.611652 4.70474,-1.563544 6.0459,-3.694249 0.63411,-1.007379 1.31095,-2.002126 1.79139,-3.078543 0.19984,-0.447729 0.15846,-0.956642 0.22392,-1.43665 0.009,-0.06789 -0.0263,-0.269294 0,-0.205239 0.24863,0.607692 0.60766,1.200778 0.67177,1.847127 0.16061,1.61918 -0.32928,5.130901 -2.911,5.130901 -0.10556,0 0.11981,-0.221141 0.22392,-0.205235 0.83946,0.128233 1.63329,0.442839 2.46316,0.615707 2.22772,0.464051 3.69603,0.444277 5.82199,-0.205235" id="path120" class="ZBYlXmdK_6"></path>
    <path style="fill:none;stroke:#87CEFA;stroke-width:1.5px;stroke-linecap:butt;stroke-linejoin:miter;stroke-opacity:1" d="m 139.73574,51.657199 c 8.35979,-0.478883 16.71956,-0.957767 25.07935,-1.436652" id="path122" class="ZBYlXmdK_7"></path>
    <!-- syringe drawing -->
    <path style="fill:none;stroke:#1E90FF;stroke-width:1px;stroke-linecap:butt;stroke-linejoin:miter;stroke-opacity:1" d="m 30.678273,26.183602 c -0.490082,0.458501 -0.150009,0.165297 -1.095132,0.796879 -0.302994,-0.566937 -0.74475,-1.05289 -1.095132,-1.593758 1.227241,-0.877611 2.241695,-1.929409 3.528759,-2.732158 0.07404,-0.04618 0.784998,-0.580302 0.851769,-0.45536 0.03628,0.06788 -0.0176,0.153593 0,0.22768 0.134624,0.566768 0.329585,1.18589 0.608407,1.707599 -0.621594,-0.101242 -0.556991,0.91072 -1.095132,0.91072" id="path144" class="ZBYlXmdK_8"></path>
    <path style="fill:none;stroke:#1E90FF;stroke-width:1px;stroke-linecap:butt;stroke-linejoin:miter;stroke-opacity:1" d="m 30.678273,26.183602 c 1.155185,0.540372 0.520045,0.06234 1.216813,1.366079 0.265861,0.497459 0.243363,0.170208 0.243363,0.455361" id="path146" class="ZBYlXmdK_9"></path>
    <path style="fill:none;stroke:#1E90FF;stroke-width:1px;stroke-linecap:butt;stroke-linejoin:miter;stroke-opacity:1" d="m 32.381812,25.045204 c 0.598905,0.09057 1.121508,1.675519 1.09513,1.707598 -0.38471,0.467895 -0.892329,0.834826 -1.338493,1.25224 l 4.867253,-3.984398" id="path148" class="ZBYlXmdK_10"></path>
    <path style="fill:none;stroke:#1E90FF;stroke-width:1px;stroke-linecap:butt;stroke-linejoin:miter;stroke-opacity:1" d="m 32.138449,28.005042 c -0.283923,0.113841 -0.584949,0.195903 -0.85177,0.34152 -0.209237,0.114189 -2.702188,2.068652 -2.676988,2.162958 0.123463,0.462031 0.494732,1.373571 0.851768,1.707599 0.130033,0.121652 0.243364,-0.161831 0.243364,0.11384 1.143004,-0.812849 2.622885,-1.315462 3.650439,-2.276799" id="path150" class="ZBYlXmdK_11"></path>
    <path style="fill:none;stroke:#1E90FF;stroke-width:1px;stroke-linecap:butt;stroke-linejoin:miter;stroke-opacity:1" d="m 37.005702,24.020644 c 0.694886,0.382894 0.695616,1.101098 0.97345,1.707599 0.707648,1.544774 -0.147689,-0.756033 0.365045,0.68304 -0.830784,0.75087 -1.776623,1.434453 -2.555309,2.162958" id="path152" class="ZBYlXmdK_12"></path>
    <path style="fill:none;stroke:#1E90FF;stroke-width:1px;stroke-linecap:butt;stroke-linejoin:miter;stroke-opacity:1" d="m 33.355262,30.054159 c 1.40441,2.317798 3.046845,4.503435 4.62389,6.716556 0.274621,0.385388 0.370053,0.801566 0.730086,1.138402" id="path156" class="ZBYlXmdK_13"></path>
    <path style="fill:none;stroke:#1E90FF;stroke-width:1px;stroke-linecap:butt;stroke-linejoin:miter;stroke-opacity:1" d="m 35.788887,28.57424 c 0.121683,0.07589 0.268743,0.124715 0.365044,0.22768 0.517707,0.553537 0.7563,1.187444 1.095133,1.821441 0.220759,0.413064 0.614796,0.739332 0.851768,1.138399 0.26325,0.443312 0.223477,0.581246 0.486726,1.024558 0.318374,0.536145 0.751294,0.96523 1.095131,1.47992 0.192275,0.287814 0.294451,0.622904 0.486726,0.91072 0.103474,0.154886 1.095133,1.325351 1.095133,1.479919" id="path160" class="ZBYlXmdK_14"></path>
    <path style="fill:none;stroke:#1E90FF;stroke-width:1px;stroke-linecap:butt;stroke-linejoin:miter;stroke-opacity:1" d="m 38.709238,37.909117 c 1.039238,0.09648 1.269627,-0.631496 1.946901,-1.138402 0.232466,-0.173986 0.440521,-0.219759 0.608409,-0.455358 0.0225,-0.03157 0,-0.151788 0,-0.113841 0,0.151787 0,0.303574 0,0.455361" id="path162" class="ZBYlXmdK_15"></path>
    <path style="fill:none;stroke:#1E90FF;stroke-width:1px;stroke-linecap:butt;stroke-linejoin:miter;stroke-opacity:1" d="m 34.815437,32.217119 c 0.446166,-0.417413 0.892331,-0.834827 1.338494,-1.25224" id="path172" class="ZBYlXmdK_16"></path>
    <path style="fill:none;stroke:#1E90FF;stroke-width:1px;stroke-linecap:butt;stroke-linejoin:miter;stroke-opacity:1" d="m 36.153931,34.266238 c 0.417148,-0.294674 0.846744,-0.564497 1.216815,-0.910719" id="path176" class="ZBYlXmdK_17"></path>
    <path style="fill:none;stroke:#1E90FF;stroke-width:1px;stroke-linecap:butt;stroke-linejoin:miter;stroke-opacity:1" d="m 37.405373,35.993811 c -0.02186,-0.196829 0.688333,-0.734049 0.688333,-0.885469" id="path180" class="ZBYlXmdK_18"></path>
    <path style="fill:none;stroke:#1E90FF;stroke-width:1px;stroke-linecap:butt;stroke-linejoin:miter;stroke-opacity:1" d="m 39.642456,37.643997 c 0.123703,0.203067 0.253742,0.398384 0.430209,0.563479" id="path182" class="ZBYlXmdK_19"></path>
    <path style="fill:none;stroke:#1E90FF;stroke-width:1px;stroke-linecap:butt;stroke-linejoin:miter;stroke-opacity:1" d="m 40.330791,37.04027 c 0.159783,0.149401 0.204842,0.343035 0.301145,0.52323" id="path186" class="ZBYlXmdK_20"></path>
    <path style="fill:none;stroke:#1E90FF;stroke-width:1px;stroke-linecap:butt;stroke-linejoin:miter;stroke-opacity:1" d="m 40.072665,38.207476 c -0.210615,0.08412 0.74281,-0.815683 0.559271,-0.643976" id="path188" class="ZBYlXmdK_21"></path>
    <path style="fill:none;stroke:#1E90FF;stroke-width:1px;stroke-linecap:butt;stroke-linejoin:miter;stroke-opacity:1" d="m 40.367147,37.880656 c 0.143457,0.119521 0.25855,0.261807 0.380254,0.398439 0.03812,0.04279 0.08716,0.08285 0.121682,0.128071 0.05415,0.07093 0.105211,0.145667 0.167312,0.213449 0.200614,0.218968 0.431207,0.415337 0.623616,0.64035 0.07894,0.09232 0.147272,0.193797 0.228152,0.2846 0.04114,0.04619 0.09575,0.08188 0.136892,0.12807 0.02342,0.02627 0.03743,0.0591 0.06084,0.08538 0.07525,0.08447 0.169981,0.156093 0.243362,0.241908 0.0212,0.0248 0.0371,0.06318 0.06084,0.08539 0.01294,0.01207 0.03271,0.01636 0.04563,0.02846 0.06361,0.05951 0.110045,0.134931 0.167312,0.199219 0.07532,0.08456 0.175832,0.192965 0.25857,0.270371" id="path194" class="ZBYlXmdK_22"></path>
    <!-- cross drawing -->
    <path style="fill:none;stroke:#FF0000;stroke-width:1px;stroke-linecap:butt;stroke-linejoin:miter;stroke-opacity:1" d="m 178.15602,28.745002 c 0,-0.76837 -0.0478,-1.5167 -0.12169,-2.2768 -0.005,-0.05814 0.006,-0.713236 0,-0.739959 -0.0305,-0.124017 -0.12169,-0.227679 -0.18251,-0.341518 0,-0.01898 0.0181,-0.04841 0,-0.05693 -0.0367,-0.01718 -0.3504,0 -0.36505,0 -0.24088,0 -0.37907,-0.02627 -0.60841,-0.05692 -0.53653,-0.0717 -1.18015,-0.01302 -1.70354,0.05692 -0.23844,0.03187 -0.49057,-0.0249 -0.73008,0 -0.49052,0.051 -0.97332,0.210828 -1.46018,0.2846 0.0791,0.606784 0.18252,1.210537 0.18252,1.821439 0,0.237316 -0.0359,0.504646 0,0.739961 0.0288,0.188293 0.0608,0.323659 0.0608,0.512279 -0.84627,-0.128686 -1.6937,-0.11384 -2.55529,-0.11384 -0.19042,0 -0.49289,-0.055 -0.66925,0 -0.0929,0.02898 -0.071,0.05692 -0.18252,0.05692 0.17436,1.305035 0,-0.32453 0,0.853797 0,0.348493 0.12416,0.726019 0.0608,1.08148 -0.0229,0.128292 -0.1102,0.259903 -0.0608,0.398439 0.0513,0.144234 0.0608,0.246066 0.0608,0.398441" id="path302" class="ZBYlXmdK_23"></path>
    <path style="fill:none;stroke:#FF0000;stroke-width:1px;stroke-linecap:butt;stroke-linejoin:miter;stroke-opacity:1" d="m 169.88168,31.363319 c 0.10139,0.113841 0.185,0.243939 0.30421,0.341521 0.18168,0.148726 0.5733,0.02783 0.79093,0.05692 0.71994,0.09622 1.46332,-0.01863 2.19026,0.05693 0.59183,0.06152 0.0801,0.05692 0.30421,0.05692" id="path312" class="ZBYlXmdK_24"></path>
    <path style="fill:none;stroke:#FF0000;stroke-width:1px;stroke-linecap:butt;stroke-linejoin:miter;stroke-opacity:1" d="m 178.15602,28.745002 c 0.0158,-0.0018 0.52094,-0.08004 0.66924,-0.05693 0.59722,0.09312 1.32852,0.196487 1.9469,0.113839 0.0635,-0.0085 0.11904,-0.04844 0.18253,-0.05693 0.24968,-0.03337 0.54605,0.05727 0.79092,0 0.15101,-0.03532 0.17258,-0.05693 0.30421,-0.05693 0.17508,0.891548 0.0589,1.836077 -0.0608,2.732166 -0.0139,0.103498 -0.0364,0.603192 -0.0608,0.626121 -0.0143,0.01341 -0.0405,0 -0.0608,0" id="path314" class="ZBYlXmdK_25"></path>
    <path style="fill:none;stroke:#FF0000;stroke-width:1px;stroke-linecap:butt;stroke-linejoin:miter;stroke-opacity:1" d="m 177.91266,31.989439 c 0.95843,-0.0978 1.96755,-0.08914 2.92035,0 0.346,0.03237 0.70123,0.212673 1.03433,0.05693" id="path316" class="ZBYlXmdK_26"></path>
    <path style="fill:none;stroke:#FF0000;stroke-width:1px;stroke-linecap:butt;stroke-linejoin:miter;stroke-opacity:1" d="m 173.47129,31.875596 c -0.0275,0.742855 0.0115,1.480899 0.0608,2.219882 0.0156,0.232527 -0.0447,0.719035 0,0.739961 0.20622,0.09647 0.38557,0.03954 0.6084,0.05692 0.60757,0.04736 1.15534,0.0407 1.76438,0 0.38337,-0.02563 0.7726,0.02562 1.15598,0 0.37092,-0.02479 0.72164,-0.05692 1.09512,-0.05692" id="path322" class="ZBYlXmdK_27"></path>
    <path style="fill:none;stroke:#FF0000;stroke-width:1px;stroke-linecap:butt;stroke-linejoin:miter;stroke-opacity:1" d="m 177.91266,31.989439 c 0.0608,0.132814 0.15223,0.25675 0.18252,0.39844 0.0904,0.422366 0,1.436834 0,1.935277 0,0.03959 -0.0382,0.497684 0,0.569203 0.0128,0.024 0.0405,-0.03795 0.0608,-0.05692" id="path324" class="ZBYlXmdK_28"></path>
  </g>
<style data-made-with="vivus-instant">.ZBYlXmdK_0{stroke-dasharray:216 218;stroke-dashoffset:217;animation:ZBYlXmdK_draw_0 8200ms ease-in-out 0ms infinite,ZBYlXmdK_fade 8200ms linear 0ms infinite;}.ZBYlXmdK_1{stroke-dasharray:16 18;stroke-dashoffset:17;animation:ZBYlXmdK_draw_1 8200ms ease-in-out 0ms infinite,ZBYlXmdK_fade 8200ms linear 0ms infinite;}.ZBYlXmdK_2{stroke-dasharray:41 43;stroke-dashoffset:42;animation:ZBYlXmdK_draw_2 8200ms ease-in-out 0ms infinite,ZBYlXmdK_fade 8200ms linear 0ms infinite;}.ZBYlXmdK_3{stroke-dasharray:231 233;stroke-dashoffset:232;animation:ZBYlXmdK_draw_3 8200ms ease-in-out 0ms infinite,ZBYlXmdK_fade 8200ms linear 0ms infinite;}.ZBYlXmdK_4{stroke-dasharray:18 20;stroke-dashoffset:19;animation:ZBYlXmdK_draw_4 8200ms ease-in-out 0ms infinite,ZBYlXmdK_fade 8200ms linear 0ms infinite;}.ZBYlXmdK_5{stroke-dasharray:45 47;stroke-dashoffset:46;animation:ZBYlXmdK_draw_5 8200ms ease-in-out 0ms infinite,ZBYlXmdK_fade 8200ms linear 0ms infinite;}.ZBYlXmdK_6{stroke-dasharray:251 253;stroke-dashoffset:252;animation:ZBYlXmdK_draw_6 8200ms ease-in-out 0ms infinite,ZBYlXmdK_fade 8200ms linear 0ms infinite;}.ZBYlXmdK_7{stroke-dasharray:26 28;stroke-dashoffset:27;animation:ZBYlXmdK_draw_7 8200ms ease-in-out 0ms infinite,ZBYlXmdK_fade 8200ms linear 0ms infinite;}.ZBYlXmdK_8{stroke-dasharray:13 15;stroke-dashoffset:14;animation:ZBYlXmdK_draw_8 8200ms ease-in-out 0ms infinite,ZBYlXmdK_fade 8200ms linear 0ms infinite;}.ZBYlXmdK_9{stroke-dasharray:3 5;stroke-dashoffset:4;animation:ZBYlXmdK_draw_9 8200ms ease-in-out 0ms infinite,ZBYlXmdK_fade 8200ms linear 0ms infinite;}.ZBYlXmdK_10{stroke-dasharray:11 13;stroke-dashoffset:12;animation:ZBYlXmdK_draw_10 8200ms ease-in-out 0ms infinite,ZBYlXmdK_fade 8200ms linear 0ms infinite;}.ZBYlXmdK_11{stroke-dasharray:11 13;stroke-dashoffset:12;animation:ZBYlXmdK_draw_11 8200ms ease-in-out 0ms infinite,ZBYlXmdK_fade 8200ms linear 0ms infinite;}.ZBYlXmdK_12{stroke-dasharray:7 9;stroke-dashoffset:8;animation:ZBYlXmdK_draw_12 8200ms ease-in-out 0ms infinite,ZBYlXmdK_fade 8200ms linear 0ms infinite;}.ZBYlXmdK_13{stroke-dasharray:10 12;stroke-dashoffset:11;animation:ZBYlXmdK_draw_13 8200ms ease-in-out 0ms infinite,ZBYlXmdK_fade 8200ms linear 0ms infinite;}.ZBYlXmdK_14{stroke-dasharray:10 12;stroke-dashoffset:11;animation:ZBYlXmdK_draw_14 8200ms ease-in-out 0ms infinite,ZBYlXmdK_fade 8200ms linear 0ms infinite;}.ZBYlXmdK_15{stroke-dasharray:4 6;stroke-dashoffset:5;animation:ZBYlXmdK_draw_15 8200ms ease-in-out 0ms infinite,ZBYlXmdK_fade 8200ms linear 0ms infinite;}.ZBYlXmdK_16{stroke-dasharray:2 4;stroke-dashoffset:3;animation:ZBYlXmdK_draw_16 8200ms ease-in-out 0ms infinite,ZBYlXmdK_fade 8200ms linear 0ms infinite;}.ZBYlXmdK_17{stroke-dasharray:2 4;stroke-dashoffset:3;animation:ZBYlXmdK_draw_17 8200ms ease-in-out 0ms infinite,ZBYlXmdK_fade 8200ms linear 0ms infinite;}.ZBYlXmdK_18{stroke-dasharray:2 4;stroke-dashoffset:3;animation:ZBYlXmdK_draw_18 8200ms ease-in-out 0ms infinite,ZBYlXmdK_fade 8200ms linear 0ms infinite;}.ZBYlXmdK_19{stroke-dasharray:1 3;stroke-dashoffset:2;animation:ZBYlXmdK_draw_19 8200ms ease-in-out 0ms infinite,ZBYlXmdK_fade 8200ms linear 0ms infinite;}.ZBYlXmdK_20{stroke-dasharray:1 3;stroke-dashoffset:2;animation:ZBYlXmdK_draw_20 8200ms ease-in-out 0ms infinite,ZBYlXmdK_fade 8200ms linear 0ms infinite;}.ZBYlXmdK_21{stroke-dasharray:1 3;stroke-dashoffset:2;animation:ZBYlXmdK_draw_21 8200ms ease-in-out 0ms infinite,ZBYlXmdK_fade 8200ms linear 0ms infinite;}.ZBYlXmdK_22{stroke-dasharray:4 6;stroke-dashoffset:5;animation:ZBYlXmdK_draw_22 8200ms ease-in-out 0ms infinite,ZBYlXmdK_fade 8200ms linear 0ms infinite;}.ZBYlXmdK_23{stroke-dasharray:18 20;stroke-dashoffset:19;animation:ZBYlXmdK_draw_23 8200ms ease-in-out 0ms infinite,ZBYlXmdK_fade 8200ms linear 0ms infinite;}.ZBYlXmdK_24{stroke-dasharray:4 6;stroke-dashoffset:5;animation:ZBYlXmdK_draw_24 8200ms ease-in-out 0ms infinite,ZBYlXmdK_fade 8200ms linear 0ms infinite;}.ZBYlXmdK_25{stroke-dasharray:8 10;stroke-dashoffset:9;animation:ZBYlXmdK_draw_25 8200ms ease-in-out 0ms infinite,ZBYlXmdK_fade 8200ms linear 0ms infinite;}.ZBYlXmdK_26{stroke-dasharray:4 6;stroke-dashoffset:5;animation:ZBYlXmdK_draw_26 8200ms ease-in-out 0ms infinite,ZBYlXmdK_fade 8200ms linear 0ms infinite;}.ZBYlXmdK_27{stroke-dasharray:8 10;stroke-dashoffset:9;animation:ZBYlXmdK_draw_27 8200ms ease-in-out 0ms infinite,ZBYlXmdK_fade 8200ms linear 0ms infinite;}.ZBYlXmdK_28{stroke-dasharray:4 6;stroke-dashoffset:5;animation:ZBYlXmdK_draw_28 8200ms ease-in-out 0ms infinite,ZBYlXmdK_fade 8200ms linear 0ms infinite;}@keyframes ZBYlXmdK_draw{100%{stroke-dashoffset:0;}}@keyframes ZBYlXmdK_fade{0%{stroke-opacity:1;}95.1219512195122%{stroke-opacity:1;}100%{stroke-opacity:0;}}@keyframes ZBYlXmdK_draw_0{7.317073170731707%{stroke-dashoffset: 217}36.58536585365854%{ stroke-dashoffset: 0;}100%{ stroke-dashoffset: 0;}}@keyframes ZBYlXmdK_draw_1{7.839721254355402%{stroke-dashoffset: 17}37.10801393728223%{ stroke-dashoffset: 0;}100%{ stroke-dashoffset: 0;}}@keyframes ZBYlXmdK_draw_2{8.362369337979093%{stroke-dashoffset: 42}37.63066202090592%{ stroke-dashoffset: 0;}100%{ stroke-dashoffset: 0;}}@keyframes ZBYlXmdK_draw_3{8.885017421602786%{stroke-dashoffset: 232}38.153310104529616%{ stroke-dashoffset: 0;}100%{ stroke-dashoffset: 0;}}@keyframes ZBYlXmdK_draw_4{9.40766550522648%{stroke-dashoffset: 19}38.67595818815332%{ stroke-dashoffset: 0;}100%{ stroke-dashoffset: 0;}}@keyframes ZBYlXmdK_draw_5{9.930313588850174%{stroke-dashoffset: 46}39.198606271777%{ stroke-dashoffset: 0;}100%{ stroke-dashoffset: 0;}}@keyframes ZBYlXmdK_draw_6{10.452961672473867%{stroke-dashoffset: 252}39.721254355400696%{ stroke-dashoffset: 0;}100%{ stroke-dashoffset: 0;}}@keyframes ZBYlXmdK_draw_7{10.975609756097562%{stroke-dashoffset: 27}40.243902439024396%{ stroke-dashoffset: 0;}100%{ stroke-dashoffset: 0;}}@keyframes ZBYlXmdK_draw_8{11.498257839721255%{stroke-dashoffset: 14}40.76655052264809%{ stroke-dashoffset: 0;}100%{ stroke-dashoffset: 0;}}@keyframes ZBYlXmdK_draw_9{12.020905923344948%{stroke-dashoffset: 4}41.289198606271775%{ stroke-dashoffset: 0;}100%{ stroke-dashoffset: 0;}}@keyframes ZBYlXmdK_draw_10{12.543554006968641%{stroke-dashoffset: 12}41.81184668989547%{ stroke-dashoffset: 0;}100%{ stroke-dashoffset: 0;}}@keyframes ZBYlXmdK_draw_11{13.066202090592332%{stroke-dashoffset: 12}42.33449477351917%{ stroke-dashoffset: 0;}100%{ stroke-dashoffset: 0;}}@keyframes ZBYlXmdK_draw_12{13.588850174216027%{stroke-dashoffset: 8}42.857142857142854%{ stroke-dashoffset: 0;}100%{ stroke-dashoffset: 0;}}@keyframes ZBYlXmdK_draw_13{14.111498257839722%{stroke-dashoffset: 11}43.37979094076655%{ stroke-dashoffset: 0;}100%{ stroke-dashoffset: 0;}}@keyframes ZBYlXmdK_draw_14{14.634146341463413%{stroke-dashoffset: 11}43.90243902439025%{ stroke-dashoffset: 0;}100%{ stroke-dashoffset: 0;}}@keyframes ZBYlXmdK_draw_15{15.156794425087107%{stroke-dashoffset: 5}44.42508710801393%{ stroke-dashoffset: 0;}100%{ stroke-dashoffset: 0;}}@keyframes ZBYlXmdK_draw_16{15.679442508710803%{stroke-dashoffset: 3}44.94773519163763%{ stroke-dashoffset: 0;}100%{ stroke-dashoffset: 0;}}@keyframes ZBYlXmdK_draw_17{16.202090592334493%{stroke-dashoffset: 3}45.47038327526132%{ stroke-dashoffset: 0;}100%{ stroke-dashoffset: 0;}}@keyframes ZBYlXmdK_draw_18{16.724738675958186%{stroke-dashoffset: 3}45.99303135888502%{ stroke-dashoffset: 0;}100%{ stroke-dashoffset: 0;}}@keyframes ZBYlXmdK_draw_19{17.247386759581882%{stroke-dashoffset: 2}46.51567944250871%{ stroke-dashoffset: 0;}100%{ stroke-dashoffset: 0;}}@keyframes ZBYlXmdK_draw_20{17.770034843205572%{stroke-dashoffset: 2}47.0383275261324%{ stroke-dashoffset: 0;}100%{ stroke-dashoffset: 0;}}@keyframes ZBYlXmdK_draw_21{18.29268292682927%{stroke-dashoffset: 2}47.5609756097561%{ stroke-dashoffset: 0;}100%{ stroke-dashoffset: 0;}}@keyframes ZBYlXmdK_draw_22{18.815331010452958%{stroke-dashoffset: 5}48.08362369337979%{ stroke-dashoffset: 0;}100%{ stroke-dashoffset: 0;}}@keyframes ZBYlXmdK_draw_23{19.33797909407666%{stroke-dashoffset: 19}48.606271777003485%{ stroke-dashoffset: 0;}100%{ stroke-dashoffset: 0;}}@keyframes ZBYlXmdK_draw_24{19.860627177700348%{stroke-dashoffset: 5}49.12891986062717%{ stroke-dashoffset: 0;}100%{ stroke-dashoffset: 0;}}@keyframes ZBYlXmdK_draw_25{20.38327526132404%{stroke-dashoffset: 9}49.65156794425087%{ stroke-dashoffset: 0;}100%{ stroke-dashoffset: 0;}}@keyframes ZBYlXmdK_draw_26{20.905923344947734%{stroke-dashoffset: 5}50.174216027874564%{ stroke-dashoffset: 0;}100%{ stroke-dashoffset: 0;}}@keyframes ZBYlXmdK_draw_27{21.428571428571427%{stroke-dashoffset: 9}50.69686411149825%{ stroke-dashoffset: 0;}100%{ stroke-dashoffset: 0;}}@keyframes ZBYlXmdK_draw_28{21.951219512195124%{stroke-dashoffset: 5}51.21951219512195%{ stroke-dashoffset: 0;}100%{ stroke-dashoffset: 0;}}</style></svg>
